<svg width="438" height="438" viewBox="0 0 438 438" fill="none" xmlns="http://www.w3.org/2000/svg">
<rect width="438" height="438" rx="44" fill="white"/>
<rect y="302" width="232" height="136" rx="44" fill="white"/>
<path d="M63.822 358.2V382H60.66V361.192H49.712V382H46.55V358.2H63.822ZM81.9509 379.858C80.2056 381.581 78.0862 382.442 75.5929 382.442C73.0996 382.442 70.9802 381.581 69.2349 379.858C67.5122 378.135 66.6509 376.016 66.6509 373.5C66.6509 370.984 67.5122 368.865 69.2349 367.142C70.9802 365.419 73.0996 364.558 75.5929 364.558C78.0862 364.558 80.2056 365.419 81.9509 367.142C83.6962 368.865 84.5689 370.984 84.5689 373.5C84.5689 376.016 83.6962 378.135 81.9509 379.858ZM75.5929 379.552C77.2929 379.552 78.7209 378.974 79.8769 377.818C81.0329 376.662 81.6109 375.223 81.6109 373.5C81.6109 371.777 81.0329 370.338 79.8769 369.182C78.7209 368.026 77.2929 367.448 75.5929 367.448C73.9156 367.448 72.4989 368.026 71.3429 369.182C70.1869 370.338 69.6089 371.777 69.6089 373.5C69.6089 375.223 70.1869 376.662 71.3429 377.818C72.4989 378.974 73.9156 379.552 75.5929 379.552ZM100.616 365V382H97.6584V367.856H90.9604V374.792C90.9604 377.58 90.3937 379.529 89.2604 380.64C88.1497 381.728 86.5744 382.181 84.5344 382V379.212C85.6904 379.371 86.5517 379.121 87.1184 378.464C87.7077 377.784 88.0024 376.537 88.0024 374.724V365H100.616ZM116.421 365H118.801V382H115.877V370.066L106.459 382H104.079V365H107.003V376.934L116.421 365ZM134.931 365V367.856H129.151V382H126.193V367.856H120.379V365H134.931ZM148.845 365H151.225V382H148.301V370.066L138.883 382H136.503V365H139.427V376.934L148.845 365ZM169.09 382H165.418L157.666 373.942V382H154.708V365H157.666V372.514L165.01 365H168.818L160.692 373.228L169.09 382ZM183.163 365H185.543V382H182.619V370.066L173.201 382H170.821V365H173.745V376.934L183.163 365Z" fill="#989EB1"/>
<rect x="282" y="20" width="136" height="136" rx="40" fill="#F2F3F8"/>
<path d="M361.004 68.2702C361.62 68.628 362 69.2871 362 70V78C364.37 78 366.5 79.0327 367.962 80.6662C369.228 82.0802 370 83.9523 370 86C370 88.0477 369.228 89.9198 367.962 91.3338C366.5 92.9673 364.37 94 362 94V102C362 102.713 361.62 103.372 361.004 103.73C360.387 104.088 359.627 104.09 359.008 103.736L346 96.3035V106C346 107.105 345.105 108 344 108H336C334.895 108 334 107.105 334 106V96C331.791 96 330 94.2091 330 92V80C330 77.7909 331.791 76 334 76H345.469L359.008 68.2635C359.627 67.9098 360.387 67.9123 361.004 68.2702ZM346 92C346.348 92 346.69 92.0908 346.992 92.2635L358 98.5536V73.4464L346.992 79.7365C346.69 79.9092 346.348 80 346 80H334V92H346ZM338 96V104H342V96H338ZM362 90C363.184 90 364.247 89.4877 364.982 88.6662C365.617 87.9572 366 87.0258 366 86C366 84.9742 365.617 84.0428 364.982 83.3338C364.247 82.5123 363.184 82 362 82V90Z" fill="#142251"/>
</svg>
