<svg width="438" height="438" viewBox="0 0 438 438" fill="none" xmlns="http://www.w3.org/2000/svg">
<rect width="438" height="438" rx="44" fill="white"/>
<rect y="302" width="195" height="136" rx="44" fill="white"/>
<path d="M55.492 367.55C57.5547 367.55 59.3 368.253 60.728 369.658C62.156 371.041 62.87 372.741 62.87 374.758C62.87 376.821 62.156 378.543 60.728 379.926C59.3227 381.309 57.5773 382 55.492 382H46.55V358.2H60.83V361.192H49.712V367.55H55.492ZM55.492 379.042C56.6707 379.042 57.668 378.634 58.484 377.818C59.3227 377.002 59.742 375.982 59.742 374.758C59.742 373.557 59.3227 372.548 58.484 371.732C57.668 370.916 56.6707 370.508 55.492 370.508H49.712V379.042H55.492ZM77.4547 365H79.8347V382H76.9107V370.066L67.4927 382H65.1127V365H68.0367V376.934L77.4547 365ZM92.4973 373.296C94.3786 374.067 95.3193 375.415 95.3193 377.342C95.3193 378.77 94.7526 379.983 93.6193 380.98C92.4859 381.955 90.8766 382.442 88.7913 382.442C85.3913 382.442 83.1133 381.082 81.9573 378.362L84.4393 376.9C85.0966 378.759 86.5586 379.688 88.8253 379.688C89.9586 379.688 90.8313 379.45 91.4433 378.974C92.0779 378.475 92.3953 377.841 92.3953 377.07C92.3953 376.39 92.1346 375.835 91.6133 375.404C91.1146 374.973 90.4346 374.758 89.5733 374.758H87.0913V372.072H88.9273C89.7886 372.072 90.4573 371.868 90.9333 371.46C91.4093 371.029 91.6473 370.451 91.6473 369.726C91.6473 369.001 91.3639 368.411 90.7973 367.958C90.2533 367.505 89.4939 367.278 88.5193 367.278C86.6153 367.278 85.3233 368.083 84.6433 369.692L82.2293 368.298C83.4306 365.805 85.5273 364.558 88.5193 364.558C90.3779 364.558 91.8399 365.034 92.9053 365.986C93.9933 366.938 94.5373 368.105 94.5373 369.488C94.5373 371.211 93.8573 372.48 92.4973 373.296ZM109.268 365H112.226V382H109.268V374.894H100.462V382H97.5043V365H100.462V372.072H109.268V365ZM117.783 374.86C118.078 376.379 118.769 377.557 119.857 378.396C120.968 379.235 122.328 379.654 123.937 379.654C126.181 379.654 127.813 378.827 128.833 377.172L131.349 378.6C129.694 381.161 127.201 382.442 123.869 382.442C121.172 382.442 118.973 381.603 117.273 379.926C115.596 378.226 114.757 376.084 114.757 373.5C114.757 370.939 115.584 368.808 117.239 367.108C118.894 365.408 121.036 364.558 123.665 364.558C126.158 364.558 128.187 365.442 129.751 367.21C131.338 368.955 132.131 371.063 132.131 373.534C132.131 373.965 132.097 374.407 132.029 374.86H117.783ZM123.665 367.346C122.078 367.346 120.764 367.799 119.721 368.706C118.678 369.59 118.032 370.78 117.783 372.276H129.139C128.89 370.667 128.255 369.443 127.235 368.604C126.215 367.765 125.025 367.346 123.665 367.346ZM142.468 382.442C139.907 382.442 137.776 381.592 136.076 379.892C134.376 378.169 133.526 376.039 133.526 373.5C133.526 370.961 134.376 368.842 136.076 367.142C137.776 365.419 139.907 364.558 142.468 364.558C144.145 364.558 145.653 364.966 146.99 365.782C148.327 366.575 149.325 367.652 149.982 369.012L147.5 370.44C147.069 369.533 146.401 368.808 145.494 368.264C144.61 367.72 143.601 367.448 142.468 367.448C140.768 367.448 139.34 368.026 138.184 369.182C137.051 370.338 136.484 371.777 136.484 373.5C136.484 375.2 137.051 376.628 138.184 377.784C139.34 378.94 140.768 379.518 142.468 379.518C143.601 379.518 144.621 379.257 145.528 378.736C146.435 378.192 147.126 377.467 147.602 376.56L150.118 378.022C149.393 379.359 148.35 380.436 146.99 381.252C145.63 382.045 144.123 382.442 142.468 382.442Z" fill="#989EB1"/>
<rect x="282" y="20" width="136" height="136" rx="40" fill="#F2F3F8"/>
<path fill-rule="evenodd" clip-rule="evenodd" d="M344 70C340.686 70 338 72.6863 338 76V78L334 78.0001C331.791 78.0001 330 79.7909 330 82V102C330 104.209 331.791 106 334 106H366C368.209 106 370 104.209 370 102V82C370 79.7909 368.209 78 366 78H362V76C362 72.6863 359.314 70 356 70H344ZM358 78V76C358 74.8954 357.105 74 356 74H344C342.895 74 342 74.8954 342 76V78L358 78ZM334 82V86H366V82H334ZM366 90H355.659C354.835 92.3304 352.612 94 350 94C347.388 94 345.165 92.3304 344.341 90H334V102H366V90Z" fill="#142251"/>
</svg>
