<svg width="438" height="438" viewBox="0 0 438 438" fill="none" xmlns="http://www.w3.org/2000/svg">
<rect width="438" height="438" rx="44" fill="white"/>
<rect y="302" width="257" height="136" rx="44" fill="white"/>
<path d="M57.736 382.442C54.132 382.442 51.1513 381.252 48.794 378.872C46.4593 376.492 45.292 373.568 45.292 370.1C45.292 366.632 46.4593 363.708 48.794 361.328C51.1513 358.948 54.132 357.758 57.736 357.758C59.912 357.758 61.9067 358.279 63.72 359.322C65.556 360.365 66.984 361.77 68.004 363.538L65.25 365.136C64.57 363.821 63.55 362.779 62.19 362.008C60.8527 361.215 59.368 360.818 57.736 360.818C54.9933 360.818 52.7493 361.702 51.004 363.47C49.2813 365.238 48.42 367.448 48.42 370.1C48.42 372.729 49.2813 374.928 51.004 376.696C52.7493 378.464 54.9933 379.348 57.736 379.348C59.368 379.348 60.8527 378.963 62.19 378.192C63.55 377.399 64.57 376.356 65.25 375.064L68.004 376.628C67.0067 378.396 65.59 379.813 63.754 380.878C61.918 381.921 59.912 382.442 57.736 382.442ZM72.2667 374.86C72.5614 376.379 73.2527 377.557 74.3407 378.396C75.4514 379.235 76.8114 379.654 78.4208 379.654C80.6647 379.654 82.2967 378.827 83.3168 377.172L85.8328 378.6C84.1781 381.161 81.6848 382.442 78.3528 382.442C75.6554 382.442 73.4567 381.603 71.7567 379.926C70.0794 378.226 69.2407 376.084 69.2407 373.5C69.2407 370.939 70.0681 368.808 71.7227 367.108C73.3774 365.408 75.5194 364.558 78.1487 364.558C80.6421 364.558 82.6708 365.442 84.2348 367.21C85.8214 368.955 86.6148 371.063 86.6148 373.534C86.6148 373.965 86.5808 374.407 86.5127 374.86H72.2667ZM78.1487 367.346C76.5621 367.346 75.2474 367.799 74.2048 368.706C73.1621 369.59 72.5161 370.78 72.2667 372.276H83.6228C83.3734 370.667 82.7388 369.443 81.7188 368.604C80.6988 367.765 79.5088 367.346 78.1487 367.346ZM102.509 365V382H99.551V367.856H92.853V374.792C92.853 377.58 92.2863 379.529 91.153 380.64C90.0423 381.728 88.467 382.181 86.427 382V379.212C87.583 379.371 88.4443 379.121 89.011 378.464C89.6003 377.784 89.895 376.537 89.895 374.724V365H102.509ZM108.045 374.86C108.34 376.379 109.031 377.557 110.119 378.396C111.23 379.235 112.59 379.654 114.199 379.654C116.443 379.654 118.075 378.827 119.095 377.172L121.611 378.6C119.956 381.161 117.463 382.442 114.131 382.442C111.434 382.442 109.235 381.603 107.535 379.926C105.858 378.226 105.019 376.084 105.019 373.5C105.019 370.939 105.846 368.808 107.501 367.108C109.156 365.408 111.298 364.558 113.927 364.558C116.42 364.558 118.449 365.442 120.013 367.21C121.6 368.955 122.393 371.063 122.393 373.534C122.393 373.965 122.359 374.407 122.291 374.86H108.045ZM113.927 367.346C112.34 367.346 111.026 367.799 109.983 368.706C108.94 369.59 108.294 370.78 108.045 372.276H119.401C119.152 370.667 118.517 369.443 117.497 368.604C116.477 367.765 115.287 367.346 113.927 367.346ZM132.458 382.442C129.942 382.442 127.868 381.615 126.236 379.96C124.604 378.305 123.788 376.175 123.788 373.568C123.788 370.667 124.208 368.434 125.046 366.87C125.908 365.306 127.653 363.889 130.282 362.62C130.758 362.393 131.404 362.099 132.22 361.736C133.059 361.373 133.671 361.101 134.056 360.92C134.442 360.716 134.872 360.455 135.348 360.138C135.824 359.798 136.176 359.435 136.402 359.05C136.652 358.642 136.833 358.177 136.946 357.656L139.326 359.016C139.258 359.379 139.168 359.719 139.054 360.036C138.941 360.331 138.771 360.625 138.544 360.92C138.34 361.192 138.159 361.43 138 361.634C137.842 361.838 137.57 362.065 137.184 362.314C136.822 362.541 136.55 362.711 136.368 362.824C136.21 362.937 135.881 363.107 135.382 363.334C134.906 363.561 134.578 363.719 134.396 363.81C134.238 363.878 133.864 364.037 133.274 364.286C132.685 364.513 132.322 364.66 132.186 364.728C130.645 365.385 129.512 366.054 128.786 366.734C128.084 367.414 127.574 368.275 127.256 369.318C127.982 368.411 128.888 367.743 129.976 367.312C131.064 366.881 132.152 366.666 133.24 366.666C135.371 366.666 137.173 367.391 138.646 368.842C140.142 370.293 140.89 372.163 140.89 374.452C140.89 376.764 140.097 378.679 138.51 380.198C136.924 381.694 134.906 382.442 132.458 382.442ZM128.48 378.09C129.546 379.087 130.872 379.586 132.458 379.586C134.045 379.586 135.348 379.099 136.368 378.124C137.411 377.149 137.932 375.925 137.932 374.452C137.932 372.933 137.434 371.698 136.436 370.746C135.462 369.771 134.17 369.284 132.56 369.284C131.11 369.284 129.795 369.749 128.616 370.678C127.46 371.585 126.882 372.786 126.882 374.282C126.882 375.823 127.415 377.093 128.48 378.09ZM152.395 364.558C154.775 364.558 156.804 365.431 158.481 367.176C160.159 368.899 160.997 371.007 160.997 373.5C160.997 375.993 160.159 378.113 158.481 379.858C156.804 381.581 154.775 382.442 152.395 382.442C149.585 382.442 147.443 381.32 145.969 379.076V388.8H143.011V365H145.969V367.924C147.443 365.68 149.585 364.558 152.395 364.558ZM152.021 379.586C153.721 379.586 155.149 379.008 156.305 377.852C157.461 376.673 158.039 375.223 158.039 373.5C158.039 371.777 157.461 370.338 156.305 369.182C155.149 368.003 153.721 367.414 152.021 367.414C150.299 367.414 148.859 368.003 147.703 369.182C146.547 370.338 145.969 371.777 145.969 373.5C145.969 375.223 146.547 376.673 147.703 377.852C148.859 379.008 150.299 379.586 152.021 379.586ZM175.849 365H178.229V382H175.305V370.066L165.887 382H163.507V365H166.431V376.934L175.849 365ZM194.359 365V367.856H188.579V382H185.621V367.856H179.807V365H194.359ZM208.274 365H210.654V382H207.73V370.066L198.312 382H195.932V365H198.856V376.934L208.274 365Z" fill="#989EB1"/>
<rect x="282" y="20" width="136" height="136" rx="40" fill="#F2F3F8"/>
<path d="M350 69C350.758 69 351.45 69.428 351.789 70.1056L356.947 80.4212L368.288 82.0708C369.041 82.1804 369.667 82.708 369.902 83.432C370.137 84.1559 369.941 84.9506 369.396 85.482L361.142 93.5299L362.999 104.877C363.121 105.627 362.809 106.382 362.191 106.825C361.574 107.268 360.759 107.323 360.088 106.967L350 101.614L339.912 106.967C339.241 107.323 338.426 107.268 337.809 106.825C337.191 106.382 336.879 105.627 337.001 104.877L338.858 93.5299L330.604 85.482C330.059 84.9506 329.863 84.1559 330.098 83.432C330.333 82.708 330.959 82.1804 331.712 82.0708L343.053 80.4212L348.211 70.1056C348.55 69.428 349.242 69 350 69ZM350 75.4721L346.164 83.1444C345.871 83.7298 345.311 84.135 344.663 84.2292L336.297 85.4461L342.396 91.393C342.864 91.8487 343.079 92.5038 342.974 93.148L341.6 101.543L349.063 97.5833C349.649 97.2722 350.351 97.2722 350.937 97.5833L358.4 101.543L357.026 93.148C356.921 92.5038 357.136 91.8487 357.604 91.393L363.703 85.4461L355.337 84.2292C354.689 84.135 354.129 83.7298 353.836 83.1444L350 75.4721Z" fill="#142251"/>
</svg>
