<svg width="438" height="438" viewBox="0 0 438 438" fill="none" xmlns="http://www.w3.org/2000/svg">
<rect width="438" height="438" rx="44" fill="white"/>
<rect y="302" width="303" height="136" rx="44" fill="white"/>
<path d="M59.64 358.2H62.802V382H59.64V372.412C57.7813 373.296 55.832 373.738 53.792 373.738C51.48 373.738 49.61 373.092 48.182 371.8C46.754 370.485 46.04 368.785 46.04 366.7V358.2H49.202V366.496C49.202 367.788 49.61 368.819 50.426 369.59C51.242 370.361 52.3753 370.746 53.826 370.746C55.866 370.746 57.804 370.304 59.64 369.42V358.2ZM80.6496 365H83.6076V382H80.6496V379.076C79.1763 381.32 77.0343 382.442 74.2236 382.442C71.8436 382.442 69.8149 381.581 68.1376 379.858C66.4603 378.113 65.6216 375.993 65.6216 373.5C65.6216 371.007 66.4603 368.899 68.1376 367.176C69.8149 365.431 71.8436 364.558 74.2236 364.558C77.0343 364.558 79.1763 365.68 80.6496 367.924V365ZM74.5976 379.586C76.3203 379.586 77.7596 379.008 78.9156 377.852C80.0716 376.673 80.6496 375.223 80.6496 373.5C80.6496 371.777 80.0716 370.338 78.9156 369.182C77.7596 368.003 76.3203 367.414 74.5976 367.414C72.8976 367.414 71.4696 368.003 70.3136 369.182C69.1576 370.338 68.5796 371.777 68.5796 373.5C68.5796 375.223 69.1576 376.673 70.3136 377.852C71.4696 379.008 72.8976 379.586 74.5976 379.586ZM95.0592 382.442C92.4979 382.442 90.3672 381.592 88.6672 379.892C86.9672 378.169 86.1172 376.039 86.1172 373.5C86.1172 370.961 86.9672 368.842 88.6672 367.142C90.3672 365.419 92.4979 364.558 95.0592 364.558C96.7366 364.558 98.2439 364.966 99.5812 365.782C100.919 366.575 101.916 367.652 102.573 369.012L100.091 370.44C99.6606 369.533 98.9919 368.808 98.0852 368.264C97.2012 367.72 96.1926 367.448 95.0592 367.448C93.3592 367.448 91.9312 368.026 90.7752 369.182C89.6419 370.338 89.0752 371.777 89.0752 373.5C89.0752 375.2 89.6419 376.628 90.7752 377.784C91.9312 378.94 93.3592 379.518 95.0592 379.518C96.1926 379.518 97.2126 379.257 98.1192 378.736C99.0259 378.192 99.7172 377.467 100.193 376.56L102.709 378.022C101.984 379.359 100.941 380.436 99.5812 381.252C98.2212 382.045 96.7139 382.442 95.0592 382.442ZM116.992 365V367.856H111.212V382H108.254V367.856H102.44V365H116.992ZM130.328 365H133.286V382H130.328V374.894H121.522V382H118.564V365H121.522V372.072H130.328V365ZM143.943 371.12C145.643 371.12 147.048 371.63 148.159 372.65C149.292 373.647 149.859 374.951 149.859 376.56C149.859 378.169 149.292 379.484 148.159 380.504C147.048 381.501 145.643 382 143.943 382H136.769V365H139.727V371.12H143.943ZM152.069 365H155.027V382H152.069V365ZM143.943 379.246C144.782 379.246 145.484 379.008 146.051 378.532C146.64 378.033 146.935 377.376 146.935 376.56C146.935 375.744 146.64 375.087 146.051 374.588C145.484 374.089 144.782 373.84 143.943 373.84H139.727V379.246H143.943ZM160.6 374.86C160.895 376.379 161.586 377.557 162.674 378.396C163.785 379.235 165.145 379.654 166.754 379.654C168.998 379.654 170.63 378.827 171.65 377.172L174.166 378.6C172.512 381.161 170.018 382.442 166.686 382.442C163.989 382.442 161.79 381.603 160.09 379.926C158.413 378.226 157.574 376.084 157.574 373.5C157.574 370.939 158.402 368.808 160.056 367.108C161.711 365.408 163.853 364.558 166.482 364.558C168.976 364.558 171.004 365.442 172.568 367.21C174.155 368.955 174.948 371.063 174.948 373.534C174.948 373.965 174.914 374.407 174.846 374.86H160.6ZM166.482 367.346C164.896 367.346 163.581 367.799 162.538 368.706C161.496 369.59 160.85 370.78 160.6 372.276H171.956C171.707 370.667 171.072 369.443 170.052 368.604C169.032 367.765 167.842 367.346 166.482 367.346ZM198.987 365V382H196.029V367.856H189.331V374.792C189.331 377.58 188.764 379.529 187.631 380.64C186.52 381.728 184.945 382.181 182.905 382V379.212C184.061 379.371 184.922 379.121 185.489 378.464C186.078 377.784 186.373 376.537 186.373 374.724V365H198.987ZM214.791 365H217.171V382H214.247V370.066L204.829 382H202.449V365H205.373V376.934L214.791 365ZM234.933 379.178H237.721V386.556H234.797V382H220.653V365H223.611V379.178H231.975V365H234.933V379.178ZM253.266 365H256.224V382H253.266V379.076C251.793 381.32 249.651 382.442 246.84 382.442C244.46 382.442 242.431 381.581 240.754 379.858C239.077 378.113 238.238 375.993 238.238 373.5C238.238 371.007 239.077 368.899 240.754 367.176C242.431 365.431 244.46 364.558 246.84 364.558C249.651 364.558 251.793 365.68 253.266 367.924V365ZM247.214 379.586C248.937 379.586 250.376 379.008 251.532 377.852C252.688 376.673 253.266 375.223 253.266 373.5C253.266 371.777 252.688 370.338 251.532 369.182C250.376 368.003 248.937 367.414 247.214 367.414C245.514 367.414 244.086 368.003 242.93 369.182C241.774 370.338 241.196 371.777 241.196 373.5C241.196 375.223 241.774 376.673 242.93 377.852C244.086 379.008 245.514 379.586 247.214 379.586Z" fill="#989EB1"/>
<rect x="266" y="20" width="136" height="136" rx="40" fill="#F2F3F8"/>
<path d="M334 72C329.582 72 326 75.5817 326 80C326 84.4183 329.582 88 334 88C338.418 88 342 84.4183 342 80C342 75.5817 338.418 72 334 72ZM322 80C322 73.3726 327.373 68 334 68C340.627 68 346 73.3726 346 80C346 86.6274 340.627 92 334 92C327.373 92 322 86.6274 322 80ZM326 100C322.686 100 320 102.686 320 106C320 107.105 319.105 108 318 108C316.895 108 316 107.105 316 106C316 100.477 320.477 96 326 96H342C347.523 96 352 100.477 352 106C352 107.105 351.105 108 350 108C348.895 108 348 107.105 348 106C348 102.686 345.314 100 342 100H326Z" fill="#142251"/>
</svg>
