<svg width="218" height="137" viewBox="0 0 218 137" fill="none" xmlns="http://www.w3.org/2000/svg">
<path d="M217.604 4.94572L217.604 131.73C217.604 134.462 215.389 136.676 212.656 136.676L4.94598 136.676C2.21442 136.676 -0.000118378 134.462 -0.000118364 131.73L-0.000117706 4.94572C-0.000117691 2.21416 2.21442 -5.97763e-05 4.94598 -5.97621e-05L212.656 -5.86841e-05C215.389 -5.86699e-05 217.604 2.21416 217.604 4.94572" fill="#989EB1"/>
<path d="M197.379 129.619L197.379 7.33708L11.5444 7.33708L11.5444 129.619L197.379 129.619Z" fill="#D5ECF1"/>
<path d="M208 7C209.105 7 210 7.89543 210 9L210 20C210 21.1046 209.105 22 208 22V22C206.895 22 206 21.1046 206 20L206 9C206 7.89543 206.895 7 208 7V7Z" fill="white"/>
<path d="M208 25C209.105 25 210 25.8954 210 27L210 28C210 29.1046 209.105 30 208 30V30C206.895 30 206 29.1046 206 28L206 27C206 25.8954 206.895 25 208 25V25Z" fill="white"/>
<path d="M183.405 129.619L197.379 129.619L197.379 128.621L184.629 126.177L183.405 129.619Z" fill="#EFF0F3"/>
<path d="M178.47 18.7013L183.002 7.33764L130.889 7.33764L129.94 9.40146L178.47 18.7013Z" fill="#EFF0F3"/>
<path d="M11.5444 93.0079L11.5444 119.455L23.4434 95.2883L11.5444 93.0079Z" fill="#EFF0F3"/>
<path d="M197.379 22.3251L197.379 7.3377L190.608 7.3377L185.651 20.0779L197.379 22.3251" fill="#EFF0F3"/>
<path d="M85.0357 107.092L74.6806 129.619L122.949 129.619L126.197 114.98L85.0357 107.092" fill="#EFF0F3"/>
<path d="M134.591 116.589L131.615 129.619L174.655 129.619L176.387 124.598L134.591 116.589Z" fill="#EFF0F3"/>
<path d="M32.8167 97.0842L18.7645 129.619L63.4173 129.619L74.7363 105.118L32.8167 97.0842Z" fill="#EFF0F3"/>
<path d="M97.1367 56.6304L11.5457 35.9656L11.5457 77.5409L81.3019 90.9087L97.1367 56.6304Z" fill="#EFF0F3"/>
<path d="M116.566 14.5719L78.8165 7.33751L11.5449 7.33751L11.5449 21.4412L102.623 44.7544L116.566 14.5719" fill="#EFF0F3"/>
<path d="M91.5696 92.8769L197.379 113.154L197.379 88.12L167.56 78.811L186.692 46.0554L197.379 47.1384L197.379 30.0588L126.673 16.509L91.5696 92.8769" fill="#EFF0F3"/>
<path d="M25.7305 95.7264L32.8164 97.0844L74.7361 105.118L81.3008 90.9085L11.5446 77.5407L11.5446 93.0079L23.4435 95.288L25.7305 95.7264" fill="white"/>
<path d="M23.4434 95.288L11.5444 93.0079L23.4434 95.2883L23.4434 95.288Z" fill="white"/>
<path d="M85.0356 107.092L126.197 114.98L127.389 109.61L134.864 115.398L134.591 116.589L176.387 124.598L177.099 122.535L184.629 126.177L197.379 128.622L197.379 118.227L89.3437 97.7191L85.0356 107.092" fill="white"/>
<path d="M89.3437 97.7191L197.379 118.227L197.379 113.154L91.5696 92.8767L89.3437 97.7191" fill="white"/>
<path d="M178.037 19.7831L178.469 18.7014L129.939 9.40158L129.447 10.4718L178.037 19.7831" fill="white"/>
<path d="M185.229 21.1616L197.379 23.4896L197.379 22.3251L185.651 20.078L185.229 21.1616Z" fill="white"/>
<path d="M119.848 7.46736L119.171 7.33755L78.8155 7.33755L116.565 14.5719L119.848 7.46736" fill="white"/>
<path d="M185.014 21.7153L177.346 21.5183L178.038 19.7829L129.448 10.4717L126.673 16.5089L197.379 30.0587L197.379 23.4895L185.229 21.1614L185.014 21.7153" fill="white"/>
<path d="M74.7375 105.118L63.4185 129.619L74.682 129.619L85.0371 107.092L74.7375 105.118Z" fill="white"/>
<path d="M123.26 15.8539L116.566 14.5716L102.622 44.7542L104.424 45.2157L104.087 58.3092L97.1354 56.6303L81.3006 90.9085L88.7228 92.3311L123.26 15.8539" fill="white"/>
<path d="M119.849 7.46723L129.94 9.40125L130.889 7.33742L119.908 7.33742L119.849 7.46723Z" fill="white"/>
<path d="M88.7239 92.3313L91.5706 92.8767L126.674 16.5088L123.261 15.8542L88.7239 92.3313" fill="white"/>
<path d="M88.723 92.3314L81.3007 90.9089L74.7361 105.118L85.0357 107.092L89.3438 97.7191L86.5313 97.1852L88.723 92.3314" fill="white"/>
<path d="M86.5319 97.185L89.3444 97.719L91.5703 92.8766L88.7236 92.3312L86.5319 97.185Z" fill="white"/>
<path d="M123.262 15.8544L125.992 9.80867L129.45 10.4718L129.941 9.40156L119.85 7.46755L116.568 14.5721L123.262 15.8544" fill="white"/>
<path d="M123.259 15.8545L126.672 16.5092L129.447 10.4719L125.99 9.80879L123.259 15.8545" fill="white"/>
<path d="M185.651 20.0778L190.607 7.33755L183.001 7.33755L178.469 18.7012L185.651 20.0778" fill="white"/>
<path d="M185.229 21.1615L185.65 20.0779L178.469 18.7013L178.037 19.783L185.229 21.1615Z" fill="white"/>
<path d="M177.347 21.5182L185.015 21.7152L185.23 21.1613L178.039 19.7828L177.347 21.5182" fill="white"/>
<path d="M25.7304 95.7262L23.4435 95.2881L11.5446 119.455L11.5446 129.619L18.7642 129.619L32.8164 97.0842L25.7304 95.7262" fill="white"/>
<path d="M23.4455 95.2885L25.7324 95.7266L23.4455 95.2882L23.4455 95.2885Z" fill="white"/>
<path d="M176.387 124.598L174.655 129.619L183.405 129.619L184.629 126.177L176.387 124.598Z" fill="white"/>
<path d="M177.099 122.535L176.387 124.598L184.629 126.177L177.099 122.535Z" fill="white"/>
<path d="M126.198 114.98L122.949 129.619L131.616 129.619L134.592 116.589L126.198 114.98" fill="white"/>
<path d="M134.865 115.398L127.39 109.61L126.199 114.98L134.593 116.589L134.865 115.398" fill="white"/>
<path d="M102.623 44.7542L11.5454 21.4411L11.5454 35.9656L97.1365 56.6304L102.623 44.7542Z" fill="white"/>
<path d="M104.426 45.2161L102.624 44.7545L97.137 56.6307L104.089 58.3096L104.426 45.2161" fill="white"/>
<path d="M167.562 78.8107L197.381 88.1196L197.381 47.1381L186.694 46.0551L167.562 78.8107" fill="#EFF0F3"/>
<path d="M95 70.5L83 98L9.5 83.5" stroke="#989EB1" stroke-width="2"/>
<path d="M105 57.382C104.957 62.5201 95.345 76 95.345 76C95.345 76 85.9575 62.3644 86.0001 57.226C86.0428 52.0879 90.3304 47.9573 95.5769 48.0003C100.824 48.0435 105.042 52.2436 105 57.382" fill="#142251"/>
</svg>
