<svg width="1525" height="381" viewBox="0 0 1525 381" fill="none" xmlns="http://www.w3.org/2000/svg">
<g filter="url(#filter0_b_0_2927)">
<g clip-path="url(#clip0_0_2927)">
<rect y="94.3918" width="454" height="293" rx="22" transform="rotate(-12 0 94.3918)" fill="#F2F3F8"/>
<g opacity="0.44">
<path d="M64.9585 111.108C66.3705 111.364 67.218 112.157 67.5007 113.487C67.7103 114.473 67.497 115.393 66.8609 116.248C66.2214 117.088 65.1817 117.66 63.7419 117.966C61.3944 118.465 59.6219 117.861 58.4245 116.152L59.9237 114.779C60.6503 115.965 61.7962 116.393 63.3612 116.06C64.1437 115.894 64.7113 115.601 65.064 115.183C65.4291 114.745 65.555 114.26 65.4419 113.728C65.3421 113.259 65.0806 112.914 64.6575 112.693C64.25 112.469 63.7488 112.42 63.1541 112.546L61.4404 112.91L61.0462 111.056L62.3139 110.786C62.9086 110.66 63.3404 110.421 63.6091 110.069C63.8746 109.702 63.9541 109.268 63.8476 108.767C63.7412 108.267 63.4591 107.901 63.0013 107.671C62.5591 107.438 62.0016 107.393 61.3286 107.536C60.014 107.816 59.24 108.561 59.0067 109.772L57.1353 109.164C57.5989 107.266 58.8636 106.097 60.9294 105.658C62.2128 105.385 63.2921 105.499 64.1673 106C65.0583 106.498 65.6052 107.224 65.8081 108.179C66.061 109.368 65.7777 110.345 64.9585 111.108ZM76.6822 102.629L78.7246 102.195L81.2195 113.932L79.1771 114.367L78.748 112.348C78.0601 114.113 76.7458 115.202 74.8051 115.615C73.1618 115.964 71.6347 115.667 70.2238 114.724C68.8095 113.765 67.9194 112.425 67.5535 110.703C67.1875 108.982 67.4572 107.403 68.3625 105.967C69.2645 104.516 70.5372 103.616 72.1804 103.267C74.1211 102.854 75.7647 103.315 77.1113 104.648L76.6822 102.629ZM74.6442 113.588C75.8336 113.335 76.7426 112.725 77.3711 111.757C77.9963 110.774 78.1825 109.687 77.9297 108.498C77.6768 107.308 77.0665 106.399 76.0987 105.771C75.1275 105.127 74.0473 104.931 72.8578 105.184C71.6841 105.433 70.7846 106.05 70.1594 107.033C69.5309 108.001 69.343 109.08 69.5958 110.269C69.8487 111.459 70.4607 112.375 71.4318 113.019C72.3996 113.648 73.4704 113.837 74.6442 113.588ZM92.6177 99.2416L95.1126 110.979L93.1172 111.404L91.3059 102.882L88.8507 109.685L88.5924 109.74L83.5824 104.524L85.3938 113.045L83.3749 113.474L80.8799 101.737L83.0631 101.272L88.0112 106.428L90.4345 99.7057L92.6177 99.2416ZM97.6756 105.282C98.1019 106.287 98.7522 107 99.6265 107.419C100.516 107.835 101.517 107.925 102.628 107.689C104.178 107.36 105.183 106.549 105.644 105.257L107.591 105.873C106.825 107.885 105.291 109.135 102.99 109.624C101.128 110.02 99.4869 109.763 98.0669 108.855C96.6593 107.927 95.7659 106.571 95.3867 104.787C95.0108 103.019 95.2693 101.426 96.1623 100.009C97.0553 98.5928 98.4095 97.6915 100.225 97.3057C101.946 96.9397 103.477 97.2524 104.816 98.2436C106.168 99.2158 107.025 100.555 107.388 102.261C107.451 102.558 107.492 102.868 107.512 103.191L97.6756 105.282ZM100.634 99.2307C99.5386 99.4635 98.6974 99.9695 98.1105 100.748C97.5203 101.512 97.249 102.428 97.2964 103.498L105.137 101.831C104.729 100.757 104.111 100.005 103.284 99.5753C102.456 99.1459 101.573 99.0311 100.634 99.2307ZM115.818 94.3102L116.237 96.2821L112.247 97.1304L114.322 106.896L112.28 107.33L110.204 97.5645L106.19 98.4178L105.771 96.4458L115.818 94.3102ZM129.094 103.756L126.559 104.295L120.024 99.8693L121.206 105.433L119.164 105.867L116.669 94.1293L118.711 93.6952L119.814 98.8833L123.782 92.6174L126.411 92.0585L122.008 98.9322L129.094 103.756ZM136.201 89.9777L138.243 89.5436L140.738 101.281L138.696 101.715L138.267 99.6966C137.579 101.462 136.265 102.551 134.324 102.964C132.681 103.313 131.153 103.016 129.743 102.073C128.328 101.114 127.438 99.7736 127.072 98.0521C126.706 96.3306 126.976 94.752 127.881 93.3164C128.783 91.8652 130.056 90.9649 131.699 90.6156C133.64 90.2031 135.283 90.6634 136.63 91.9966L136.201 89.9777ZM134.163 100.937C135.352 100.684 136.261 100.074 136.89 99.1059C137.515 98.1225 137.701 97.036 137.448 95.8466C137.196 94.6571 136.585 93.7482 135.617 93.1197C134.646 92.4755 133.566 92.2798 132.377 92.5326C131.203 92.7821 130.303 93.3986 129.678 94.3821C129.05 95.3499 128.862 96.4286 129.115 97.618C129.367 98.8074 129.979 99.7242 130.951 100.368C131.918 100.997 132.989 101.186 134.163 100.937Z" fill="#142251"/>
<g clip-path="url(#clip1_0_2927)">
<path d="M39.174 108.123C38.3458 107.533 37.1222 107.746 36.485 108.727L30.246 118.334C30.0847 118.582 30.1402 118.843 30.3886 119.005C30.6371 119.166 30.8981 119.111 31.0594 118.862L36.22 110.916C36.5208 110.452 37.1401 110.321 37.6033 110.622C38.0665 110.922 38.1981 111.542 37.8974 112.005L32.7368 119.951C31.9738 121.126 30.4742 121.445 29.2994 120.682C28.1245 119.919 27.8058 118.419 28.5687 117.245L34.8076 107.638C36.015 105.778 38.4961 105.199 40.3172 106.482C42.1617 107.694 42.7334 110.164 41.4555 111.979L34.1492 123.229C32.4619 125.827 29.1038 126.541 26.5057 124.854C23.9076 123.167 23.1938 119.809 24.881 117.211L31.12 107.604C31.4207 107.14 32.0401 107.009 32.5033 107.309C32.9664 107.61 33.0981 108.23 32.7973 108.693L26.5584 118.3C25.4728 119.972 25.9233 122.091 27.595 123.177C29.2667 124.262 31.3862 123.812 32.4718 122.14L39.7891 110.873C39.797 110.86 39.8051 110.848 39.8135 110.837C40.404 110.008 40.1911 108.785 39.2099 108.148C39.1977 108.14 39.1857 108.132 39.174 108.123Z" fill="#142251"/>
</g>
<path d="M414.118 28.1367C414.419 27.6735 415.038 27.5419 415.501 27.8427L421.779 31.9195L425.856 25.6418C426.156 25.1786 426.776 25.047 427.239 25.3478C427.702 25.6486 427.834 26.2679 427.533 26.7311L423.456 33.0088L429.734 37.0855C430.197 37.3863 430.329 38.0057 430.028 38.4688C429.727 38.932 429.108 39.0637 428.645 38.7629L422.367 34.6861L418.29 40.9638C417.989 41.427 417.37 41.5586 416.907 41.2578C416.444 40.957 416.312 40.3377 416.613 39.8745L420.69 33.5968L414.412 29.52C413.949 29.2192 413.817 28.5999 414.118 28.1367Z" fill="#142251"/>
<g clip-path="url(#clip2_0_2927)">
<path d="M369.684 35.5367C369.985 35.0735 370.604 34.9418 371.068 35.2426L374.626 37.5533C375.089 37.8541 375.221 38.4735 374.92 38.9366L367.988 49.6112C367.843 49.8336 367.616 49.9895 367.357 50.0447L364.423 50.6684C363.882 50.7833 363.351 50.4384 363.237 49.8982L362.613 46.9637C362.558 46.7043 362.608 46.4336 362.752 46.2112L369.684 35.5367ZM364.655 46.9531L364.985 48.5042L366.536 48.1745L372.698 38.686L370.817 37.4646L364.655 46.9531ZM357.453 41.9265C357.223 40.8461 357.913 39.784 358.993 39.5544L363.884 38.5148C364.424 38.4 364.955 38.7448 365.07 39.2851C365.185 39.8253 364.84 40.3563 364.3 40.4711L359.409 41.5107L361.904 53.2485L373.642 50.7535L372.602 45.8628C372.487 45.3226 372.832 44.7915 373.372 44.6767C373.913 44.5619 374.444 44.9067 374.558 45.447L375.598 50.3377C375.828 51.4181 375.138 52.4802 374.058 52.7098L362.32 55.2047C361.239 55.4344 360.177 54.7447 359.948 53.6643L357.453 41.9265Z" fill="#142251"/>
</g>
</g>
<path d="M463.864 269.803C463.401 269.502 463.27 268.883 463.57 268.42L471.195 256.678C471.496 256.215 472.115 256.084 472.579 256.384C473.042 256.685 473.174 257.305 472.873 257.768L465.248 269.509C464.947 269.972 464.328 270.104 463.864 269.803ZM469.147 270.849C468.684 270.548 468.552 269.929 468.853 269.466L474.299 261.079C474.6 260.616 475.22 260.484 475.683 260.785C476.146 261.086 476.278 261.705 475.977 262.168L470.53 270.555C470.23 271.018 469.61 271.15 469.147 270.849ZM474.43 271.895C473.967 271.594 473.835 270.975 474.136 270.512L477.404 265.48C477.704 265.016 478.324 264.885 478.787 265.186C479.25 265.486 479.382 266.106 479.081 266.569L475.813 271.601C475.512 272.064 474.893 272.196 474.43 271.895Z" fill="#142251" fill-opacity="0.44"/>
<rect x="11.6426" y="149.168" width="454" height="1" transform="rotate(-12 11.6426 149.168)" fill="#E4E7F1"/>
<path d="M261.914 194.328C267.681 206.236 262.852 222.048 250.046 238.082C237.265 254.084 216.646 270.154 191.21 282.474C165.774 294.793 140.381 301.007 119.902 301.114C99.3821 301.221 83.9814 295.207 78.2142 283.299C72.447 271.391 77.2761 255.579 90.0824 239.545C102.863 223.543 123.482 207.473 148.918 195.153C174.354 182.834 199.747 176.62 220.226 176.513C240.746 176.406 256.147 182.42 261.914 194.328Z" stroke="#C3C7CF"/>
</g>
</g>
<path d="M54.2852 170.953L56.9457 170.387L61.894 193.667L58.8344 194.317L54.593 174.363L49.9487 176.88L48.6183 174.382L54.2852 170.953ZM67.2745 192.906C66.6758 193.033 66.1211 192.931 65.6103 192.599C65.0995 192.267 64.7805 191.802 64.6533 191.203C64.526 190.605 64.6283 190.05 64.96 189.539C65.2917 189.029 65.7569 188.71 66.3555 188.582C66.9763 188.45 67.531 188.553 68.0196 188.889C68.5304 189.221 68.8494 189.686 68.9767 190.284C69.1039 190.883 69.0017 191.438 68.67 191.949C68.3604 192.455 67.8953 192.774 67.2745 192.906Z" fill="#989EB1"/>
<path d="M82.9065 164.869C85.0571 164.412 86.995 164.753 88.7203 165.893C90.4631 167.005 91.5607 168.626 92.0131 170.754C92.4608 172.86 92.1172 174.787 90.9824 176.535C89.8698 178.278 88.2381 179.377 86.0875 179.835L80.7331 180.973L82.5004 189.287L79.4075 189.944L74.4592 166.664L82.9065 164.869ZM85.4725 176.941C86.7585 176.668 87.7308 176.009 88.3895 174.966C89.0435 173.9 89.2315 172.713 88.9534 171.405C88.6707 170.074 88.0161 169.066 86.9898 168.381C85.9635 167.695 84.8074 167.489 83.5215 167.762L78.1671 168.9L80.1181 178.079L85.4725 176.941ZM106.362 166.835L109.255 166.22L112.789 182.849L109.896 183.464L109.288 180.604C108.314 183.105 106.452 184.648 103.702 185.232C101.374 185.727 99.211 185.306 97.2122 183.97C95.2086 182.612 93.9477 180.713 93.4293 178.274C92.9109 175.835 93.2929 173.599 94.5755 171.565C95.8533 169.509 97.6562 168.234 99.9842 167.739C102.733 167.155 105.062 167.807 106.97 169.695L106.362 166.835ZM103.474 182.361C105.159 182.003 106.447 181.138 107.338 179.767C108.223 178.374 108.487 176.835 108.129 175.15C107.771 173.465 106.906 172.177 105.535 171.286C104.159 170.374 102.629 170.097 100.944 170.455C99.2809 170.808 98.0067 171.682 97.121 173.075C96.2306 174.446 95.9645 175.974 96.3226 177.659C96.6808 179.344 97.5478 180.643 98.9236 181.555C100.295 182.446 101.812 182.714 103.474 182.361ZM123.484 181.027C121.023 181.551 118.822 181.173 116.882 179.893C114.942 178.614 113.701 176.7 113.159 174.15C112.555 171.312 112.501 169.041 112.997 167.337C113.514 165.628 114.926 163.879 117.234 162.091C117.653 161.77 118.224 161.348 118.946 160.823C119.691 160.294 120.233 159.901 120.573 159.644C120.907 159.364 121.274 159.019 121.674 158.61C122.069 158.178 122.337 157.751 122.478 157.327C122.638 156.876 122.718 156.383 122.721 155.85L125.332 156.685C125.34 157.054 125.322 157.406 125.278 157.74C125.228 158.051 125.123 158.375 124.962 158.71C124.819 159.019 124.692 159.289 124.579 159.522C124.466 159.754 124.247 160.033 123.922 160.357C123.614 160.654 123.384 160.877 123.23 161.025C123.098 161.169 122.812 161.404 122.371 161.729C121.953 162.05 121.664 162.273 121.506 162.4C121.365 162.499 121.032 162.732 120.507 163.099C119.978 163.443 119.654 163.662 119.535 163.757C118.164 164.721 117.195 165.61 116.626 166.426C116.081 167.237 115.761 168.186 115.667 169.272C116.188 168.234 116.936 167.392 117.911 166.744C118.885 166.097 119.905 165.66 120.969 165.434C123.053 164.991 124.967 165.325 126.709 166.438C128.474 167.546 129.595 169.22 130.071 171.459C130.551 173.72 130.174 175.759 128.937 177.574C127.696 179.367 125.879 180.518 123.484 181.027ZM118.688 177.598C119.938 178.352 121.338 178.564 122.89 178.234C124.442 177.904 125.616 177.156 126.411 175.991C127.228 174.821 127.484 173.515 127.177 172.074C126.862 170.588 126.117 169.484 124.943 168.76C123.787 168.009 122.422 167.801 120.848 168.136C119.429 168.437 118.24 169.165 117.28 170.319C116.338 171.447 116.022 172.742 116.333 174.205C116.654 175.713 117.439 176.844 118.688 177.598ZM146.971 173.393C145.622 175.441 143.728 176.724 141.289 177.243C138.851 177.761 136.598 177.359 134.533 176.037C132.49 174.71 131.207 172.816 130.684 170.355C130.161 167.894 130.562 165.642 131.889 163.599C133.238 161.551 135.132 160.268 137.571 159.75C140.01 159.231 142.262 159.633 144.327 160.955C146.393 162.277 147.687 164.169 148.21 166.63C148.733 169.091 148.32 171.346 146.971 173.393ZM140.689 174.416C142.351 174.063 143.628 173.2 144.518 171.829C145.409 170.458 145.675 168.93 145.317 167.245C144.959 165.56 144.094 164.272 142.723 163.382C141.352 162.492 139.835 162.223 138.172 162.576C136.531 162.925 135.266 163.785 134.375 165.156C133.485 166.527 133.219 168.055 133.577 169.74C133.935 171.425 134.8 172.713 136.171 173.604C137.542 174.494 139.048 174.765 140.689 174.416ZM160.246 155.382L160.839 158.176L155.186 159.377L158.126 173.212L155.233 173.827L152.292 159.992L146.605 161.201L146.012 158.407L160.246 155.382ZM174.57 152.337L177.463 151.722L180.998 168.351L178.104 168.966L177.496 166.106C176.522 168.607 174.66 170.15 171.911 170.734C169.583 171.229 167.419 170.808 165.42 169.472C163.417 168.113 162.156 166.215 161.637 163.776C161.119 161.337 161.501 159.101 162.784 157.067C164.061 155.011 165.864 153.736 168.192 153.241C170.941 152.657 173.27 153.309 175.178 155.197L174.57 152.337ZM171.683 167.863C173.368 167.505 174.655 166.64 175.546 165.269C176.431 163.876 176.695 162.337 176.337 160.651C175.979 158.966 175.114 157.679 173.743 156.788C172.367 155.876 170.837 155.599 169.152 155.957C167.489 156.31 166.215 157.184 165.329 158.577C164.439 159.948 164.173 161.476 164.531 163.161C164.889 164.846 165.756 166.145 167.132 167.057C168.503 167.948 170.02 168.216 171.683 167.863ZM184.595 160.287C185.199 161.711 186.12 162.72 187.359 163.314C188.62 163.903 190.037 164.031 191.611 163.696C193.806 163.23 195.231 162.081 195.884 160.251L198.642 161.124C197.556 163.974 195.384 165.745 192.125 166.437C189.486 166.998 187.161 166.635 185.15 165.348C183.155 164.034 181.89 162.113 181.353 159.585C180.82 157.08 181.186 154.824 182.451 152.817C183.716 150.81 185.635 149.533 188.207 148.987C190.646 148.468 192.814 148.911 194.711 150.315C196.626 151.693 197.84 153.59 198.354 156.006C198.443 156.428 198.502 156.867 198.53 157.325L184.595 160.287ZM188.786 151.714C187.234 152.044 186.043 152.76 185.211 153.864C184.375 154.946 183.991 156.244 184.058 157.759L195.166 155.398C194.587 153.876 193.712 152.81 192.54 152.202C191.368 151.594 190.117 151.431 188.786 151.714ZM215.204 143.7L218.738 160.329L215.911 160.93L213.345 148.857L209.867 158.495L209.501 158.573L202.404 151.183L204.97 163.255L202.11 163.863L198.575 147.235L201.668 146.577L208.678 153.881L212.111 144.358L215.204 143.7ZM237.646 138.93L238.24 141.724L232.586 142.925L235.527 156.76L232.633 157.375L229.693 143.54L224.006 144.749L223.412 141.955L237.646 138.93ZM255.325 150.362C253.976 152.41 252.082 153.693 249.644 154.211C247.205 154.73 244.953 154.328 242.887 153.006C240.844 151.679 239.561 149.785 239.038 147.324C238.515 144.863 238.917 142.611 240.243 140.568C241.593 138.52 243.486 137.237 245.925 136.718C248.364 136.2 250.616 136.602 252.682 137.924C254.747 139.246 256.041 141.138 256.564 143.599C257.087 146.06 256.674 148.314 255.325 150.362ZM249.043 151.385C250.706 151.031 251.982 150.169 252.873 148.798C253.763 147.427 254.029 145.899 253.671 144.214C253.313 142.529 252.448 141.241 251.077 140.351C249.706 139.46 248.189 139.192 246.526 139.545C244.885 139.894 243.62 140.754 242.73 142.125C241.839 143.496 241.573 145.024 241.931 146.709C242.289 148.394 243.154 149.682 244.525 150.572C245.896 151.463 247.402 151.733 249.043 151.385ZM270.161 132.019L273.696 148.647L270.802 149.262L267.862 135.427L261.31 136.82L262.752 143.604C263.332 146.331 263.183 148.356 262.305 149.678C261.445 150.973 259.998 151.744 257.965 151.991L257.386 149.264C258.549 149.179 259.34 148.756 259.758 147.995C260.193 147.207 260.222 145.926 259.845 144.153L257.823 134.641L270.161 132.019ZM281.505 135.864C283.168 135.511 284.648 135.717 285.947 136.484C287.263 137.224 288.088 138.381 288.423 139.955C288.757 141.529 288.476 142.933 287.58 144.167C286.701 145.373 285.43 146.153 283.767 146.506L276.75 147.998L273.215 131.369L276.109 130.754L277.381 136.741L281.505 135.864ZM283.194 143.813C284.015 143.638 284.653 143.259 285.108 142.676C285.581 142.066 285.732 141.361 285.563 140.563C285.393 139.765 284.968 139.183 284.288 138.818C283.63 138.448 282.891 138.35 282.07 138.525L277.947 139.401L279.07 144.689L283.194 143.813ZM305.401 141.908L301.809 142.671L292.551 136.401L294.227 144.283L291.333 144.898L287.799 128.27L290.692 127.655L292.255 135.004L297.876 126.128L301.601 125.336L295.363 135.074L305.401 141.908ZM318.824 136.865C317.475 138.913 315.581 140.196 313.142 140.714C310.704 141.233 308.451 140.831 306.386 139.509C304.343 138.182 303.06 136.288 302.537 133.827C302.014 131.366 302.415 129.114 303.742 127.071C305.091 125.023 306.985 123.74 309.424 123.221C311.863 122.703 314.115 123.105 316.18 124.427C318.246 125.749 319.54 127.641 320.063 130.102C320.586 132.563 320.173 134.817 318.824 136.865ZM312.542 137.888C314.204 137.534 315.481 136.672 316.371 135.301C317.262 133.93 317.528 132.402 317.17 130.717C316.812 129.032 315.947 127.744 314.576 126.853C313.205 125.963 311.688 125.695 310.025 126.048C308.384 126.397 307.119 127.257 306.228 128.628C305.338 129.999 305.072 131.527 305.43 133.212C305.788 134.897 306.653 136.185 308.024 137.075C309.395 137.965 310.901 138.236 312.542 137.888ZM72.7783 208.733L76.3128 225.362L73.4195 225.977L70.4717 212.109L61.8581 213.939L64.8059 227.808L61.9125 228.423L58.378 211.794L72.7783 208.733ZM92.9759 219.63C91.6268 221.678 89.7329 222.961 87.2941 223.479C84.8552 223.998 82.6031 223.596 80.5378 222.274C78.4946 220.947 77.2114 219.053 76.6883 216.592C76.1652 214.131 76.5671 211.879 77.894 209.836C79.243 207.788 81.1369 206.505 83.5758 205.986C86.0146 205.468 88.2667 205.87 90.3321 207.192C92.3974 208.514 93.6917 210.406 94.2148 212.867C94.7379 215.328 94.3249 217.582 92.9759 219.63ZM86.6932 220.653C88.356 220.299 89.6327 219.437 90.5231 218.066C91.4135 216.695 91.6796 215.167 91.3214 213.482C90.9632 211.797 90.0986 210.509 88.7275 209.619C87.3565 208.728 85.8395 208.46 84.1766 208.813C82.536 209.162 81.2704 210.022 80.38 211.393C79.4896 212.764 79.2235 214.292 79.5817 215.977C79.9398 217.662 80.8045 218.95 82.1756 219.84C83.5466 220.731 85.0525 221.001 86.6932 220.653ZM110.599 200.242C112.927 199.747 115.093 200.179 117.096 201.538C119.095 202.874 120.354 204.762 120.872 207.2C121.391 209.639 121.011 211.887 119.733 213.943C118.451 215.976 116.645 217.241 114.317 217.735C111.568 218.32 109.24 217.668 107.332 215.779L109.354 225.291L106.46 225.906L101.512 202.626L104.405 202.011L105.013 204.871C105.988 202.369 107.85 200.827 110.599 200.242ZM113.358 215.02C115.021 214.666 116.297 213.804 117.188 212.433C118.073 211.04 118.337 209.5 117.979 207.815C117.621 206.13 116.756 204.843 115.385 203.952C114.009 203.04 112.49 202.76 110.827 203.114C109.142 203.472 107.857 204.348 106.971 205.741C106.081 207.112 105.815 208.64 106.173 210.325C106.531 212.01 107.398 213.309 108.774 214.221C110.145 215.112 111.673 215.378 113.358 215.02ZM125.306 207.648C125.91 209.073 126.831 210.082 128.07 210.676C129.331 211.265 130.748 211.393 132.322 211.058C134.517 210.592 135.942 209.443 136.595 207.612L139.353 208.486C138.267 211.336 136.095 213.107 132.835 213.799C130.197 214.36 127.872 213.997 125.86 212.71C123.866 211.396 122.601 209.475 122.063 206.947C121.531 204.442 121.897 202.186 123.162 200.179C124.427 198.172 126.346 196.895 128.918 196.349C131.356 195.83 133.525 196.273 135.422 197.677C137.337 199.055 138.551 200.952 139.065 203.368C139.154 203.79 139.213 204.229 139.241 204.686L125.306 207.648ZM129.497 199.076C127.945 199.406 126.754 200.122 125.922 201.226C125.086 202.307 124.702 203.606 124.769 205.121L135.877 202.76C135.298 201.238 134.423 200.172 133.251 199.564C132.079 198.956 130.827 198.793 129.497 199.076ZM156.888 208.235L153.297 208.998L144.039 202.728L145.714 210.61L142.821 211.225L139.286 194.597L142.179 193.982L143.742 201.331L149.363 192.455L153.088 191.663L146.85 201.401L156.888 208.235ZM170.311 203.192C168.962 205.24 167.068 206.523 164.63 207.041C162.191 207.56 159.939 207.158 157.873 205.836C155.83 204.509 154.547 202.615 154.024 200.154C153.501 197.693 153.903 195.441 155.23 193.398C156.579 191.35 158.472 190.067 160.911 189.548C163.35 189.03 165.602 189.432 167.668 190.754C169.733 192.076 171.027 193.967 171.55 196.428C172.073 198.89 171.66 201.144 170.311 203.192ZM164.029 204.214C165.692 203.861 166.968 202.999 167.859 201.628C168.749 200.257 169.015 198.729 168.657 197.043C168.299 195.358 167.434 194.071 166.063 193.18C164.692 192.29 163.175 192.022 161.512 192.375C159.872 192.724 158.606 193.584 157.716 194.955C156.825 196.326 156.559 197.854 156.917 199.539C157.275 201.224 158.14 202.512 159.511 203.402C160.882 204.292 162.388 204.563 164.029 204.214ZM188.492 184.137L192.027 200.766L189.2 201.367L186.634 189.295L183.156 198.932L182.79 199.01L175.692 191.62L178.258 203.693L175.398 204.3L171.864 187.672L174.957 187.015L181.966 194.319L185.399 184.795L188.492 184.137ZM195.658 192.695C196.262 194.119 197.183 195.128 198.421 195.722C199.682 196.312 201.1 196.439 202.674 196.104C204.869 195.638 206.293 194.489 206.947 192.659L209.705 193.532C208.619 196.382 206.446 198.153 203.187 198.846C200.549 199.406 198.224 199.043 196.212 197.756C194.218 196.442 192.952 194.521 192.415 191.994C191.882 189.488 192.249 187.232 193.514 185.225C194.779 183.218 196.697 181.942 199.269 181.395C201.708 180.877 203.876 181.319 205.774 182.724C207.688 184.101 208.903 185.998 209.416 188.415C209.506 188.836 209.565 189.275 209.592 189.733L195.658 192.695ZM199.849 184.122C198.297 184.452 197.105 185.169 196.274 186.272C195.438 187.354 195.053 188.652 195.12 190.167L206.228 187.806C205.65 186.284 204.774 185.219 203.602 184.61C202.43 184.002 201.179 183.839 199.849 184.122ZM221.145 177.197L224.038 176.582L227.573 193.211L224.679 193.826L223.202 186.875L214.588 188.706L216.066 195.656L213.172 196.271L209.638 179.643L212.531 179.028L214.001 185.945L222.615 184.114L221.145 177.197ZM244.36 186.757L246.655 186.269L248.189 193.486L245.329 194.094L244.382 189.638L231.91 192.288L232.857 196.745L229.997 197.353L228.463 190.136L230.492 189.705C231.245 188.015 231.341 185.851 230.781 183.213L229.141 175.497L241.412 172.889L244.36 186.757ZM233.784 189.005L241.5 187.365L239.125 176.191L232.573 177.583L233.641 182.605C234.169 185.088 234.216 187.222 233.784 189.005ZM258.614 169.233L261.508 168.618L265.042 185.246L262.149 185.861L261.541 183.001C260.566 185.502 258.704 187.045 255.955 187.629C253.627 188.124 251.464 187.704 249.465 186.367C247.461 185.009 246.2 183.11 245.682 180.671C245.164 178.232 245.546 175.996 246.828 173.962C248.106 171.906 249.909 170.631 252.237 170.136C254.986 169.552 257.315 170.204 259.222 172.093L258.614 169.233ZM255.727 184.758C257.412 184.4 258.7 183.535 259.59 182.164C260.476 180.771 260.74 179.232 260.382 177.547C260.023 175.862 259.159 174.574 257.788 173.684C256.412 172.771 254.882 172.494 253.197 172.852C251.534 173.206 250.259 174.079 249.374 175.472C248.483 176.843 248.217 178.371 248.575 180.056C248.934 181.741 249.801 183.04 251.176 183.953C252.547 184.843 254.064 185.112 255.727 184.758ZM281.477 178.868L284.204 178.288L285.738 185.505L282.878 186.113L281.931 181.656L268.096 184.597L264.561 167.969L267.455 167.354L270.402 181.222L278.584 179.483L275.636 165.615L278.529 165L281.477 178.868ZM295.082 161.481L297.41 160.986L300.945 177.615L298.084 178.223L295.603 166.55L288.872 180.181L286.544 180.676L283.01 164.047L285.87 163.439L288.351 175.112L295.082 161.481ZM312.556 157.767L314.884 157.272L318.419 173.901L315.559 174.508L313.077 162.835L306.346 176.467L304.018 176.961L300.484 160.333L303.344 159.725L305.825 171.398L312.556 157.767ZM82.5707 256.601C81.2216 258.649 79.3277 259.932 76.8888 260.451C74.45 260.969 72.1979 260.567 70.1325 259.245C68.0893 257.918 66.8062 256.024 66.2831 253.563C65.76 251.102 66.1619 248.85 67.4887 246.807C68.8378 244.759 70.7317 243.476 73.1705 242.958C75.6094 242.439 77.8615 242.841 79.9268 244.163C81.9922 245.485 83.2864 247.377 83.8095 249.838C84.3326 252.299 83.9197 254.553 82.5707 256.601ZM76.288 257.624C77.9508 257.27 79.2274 256.408 80.1178 255.037C81.0082 253.666 81.2743 252.138 80.9162 250.453C80.558 248.768 79.6934 247.48 78.3223 246.59C76.9512 245.699 75.4343 245.431 73.7714 245.784C72.1307 246.133 70.8652 246.993 69.9748 248.364C69.0844 249.735 68.8183 251.263 69.1765 252.948C69.5346 254.633 70.3992 255.921 71.7703 256.811C73.1414 257.702 74.6473 257.973 76.288 257.624ZM95.845 238.59L96.4388 241.383L90.7851 242.585L93.7258 256.42L90.8324 257.035L87.8917 243.2L82.2048 244.409L81.611 241.615L95.845 238.59ZM103.905 237.224L102.022 230.325L104.915 229.71L106.001 236.779L103.905 237.224ZM108.894 236.164L107.01 229.265L109.904 228.65L110.989 235.718L108.894 236.164ZM124.181 250.398C121.676 250.931 119.415 250.543 117.399 249.233C115.378 247.902 114.103 245.994 113.576 243.511C113.048 241.028 113.439 238.778 114.748 236.762C116.053 234.723 117.958 233.438 120.463 232.905C122.104 232.556 123.663 232.642 125.141 233.162C126.614 233.66 127.813 234.506 128.739 235.7L126.608 237.612C125.998 236.815 125.193 236.245 124.193 235.901C123.216 235.553 122.172 235.496 121.064 235.732C119.401 236.086 118.124 236.948 117.234 238.319C116.366 239.685 116.111 241.211 116.469 242.896C116.822 244.559 117.674 245.838 119.023 246.733C120.394 247.623 121.911 247.892 123.573 247.538C124.682 247.303 125.626 246.836 126.404 246.137C127.178 245.417 127.703 244.563 127.98 243.578L130.745 244.484C130.314 245.943 129.518 247.213 128.357 248.294C127.192 249.353 125.8 250.054 124.181 250.398ZM142.389 237.143C144.247 237.49 145.374 238.594 145.77 240.457C146.062 241.831 145.837 243.061 145.094 244.146C144.369 245.204 143.153 245.914 141.445 246.277L133.131 248.044L129.597 231.416L137.246 229.79C138.909 229.436 140.284 229.584 141.372 230.234C142.456 230.861 143.141 231.85 143.429 233.203C143.768 234.799 143.421 236.113 142.389 237.143ZM137.664 232.412L132.975 233.409L133.901 237.766L138.59 236.769C140.275 236.411 140.96 235.489 140.644 234.003C140.343 232.584 139.349 232.054 137.664 232.412ZM140.721 243.685C141.563 243.506 142.164 243.17 142.522 242.676C142.903 242.178 143.016 241.563 142.86 240.832C142.714 240.144 142.368 239.662 141.823 239.384C141.294 239.079 140.609 239.016 139.766 239.195L134.445 240.326L135.4 244.816L140.721 243.685ZM162.148 239.687C160.799 241.734 158.905 243.018 156.467 243.536C154.028 244.054 151.776 243.652 149.71 242.33C147.667 241.003 146.384 239.11 145.861 236.649C145.338 234.188 145.74 231.935 147.067 229.892C148.416 227.844 150.31 226.561 152.748 226.043C155.187 225.524 157.439 225.926 159.505 227.248C161.57 228.571 162.864 230.462 163.387 232.923C163.91 235.384 163.497 237.639 162.148 239.687ZM155.866 240.709C157.529 240.356 158.805 239.493 159.696 238.122C160.586 236.751 160.852 235.223 160.494 233.538C160.136 231.853 159.271 230.565 157.9 229.675C156.529 228.785 155.012 228.516 153.349 228.87C151.709 229.218 150.443 230.078 149.553 231.449C148.662 232.82 148.396 234.349 148.754 236.034C149.112 237.719 149.977 239.006 151.348 239.897C152.719 240.787 154.225 241.058 155.866 240.709ZM175.773 221.601L178.101 221.106L181.636 237.734L178.775 238.342L176.294 226.669L169.563 240.3L167.235 240.795L163.701 224.167L166.561 223.559L169.042 235.232L175.773 221.601ZM199.143 234.013L195.751 234.734L189.759 229.438L186.406 236.72L183.013 237.441L187.582 227.537L179.845 220.735L183.27 220.007L188.79 224.882L191.85 218.183L195.243 217.462L190.967 226.783L199.143 234.013ZM196.832 217.472L194.948 210.573L197.841 209.958L198.927 217.027L196.832 217.472ZM201.82 216.412L199.936 209.513L202.83 208.898L203.915 215.966L201.82 216.412Z" fill="#142251"/>
<circle cx="837" cy="66" r="4" fill="#142251"/>
<ellipse cx="846.505" cy="47.7128" rx="11.5" ry="8" transform="rotate(25.8444 846.505 47.7128)" fill="#AFB4C4"/>
<path d="M856.405 52.508C855.533 54.3078 853.673 55.4766 851.279 55.8548C848.888 56.2327 846.013 55.808 843.235 54.4626C840.458 53.1172 838.342 51.1247 837.156 49.0141C835.969 46.9015 835.733 44.7173 836.605 42.9176C837.477 41.1178 839.337 39.949 841.731 39.5707C844.122 39.1928 846.997 39.6175 849.774 40.9629C852.552 42.3083 854.667 44.3009 855.853 46.4115C857.04 48.524 857.276 50.7082 856.405 52.508Z" stroke="#142251" stroke-opacity="0.44"/>
<mask id="path-17-inside-1_0_2927" fill="white">
<path fill-rule="evenodd" clip-rule="evenodd" d="M855.814 41.1103L845.914 36.3151L841.681 45.0538C841.675 45.0657 841.669 45.0778 841.663 45.0899C841.657 45.102 841.652 45.1142 841.646 45.1264L841.461 45.5078L841.511 45.5319C841.167 47.1156 842.703 49.2045 845.196 50.4125C847.69 51.6204 850.281 51.53 851.311 50.2786L851.361 50.303L855.814 41.1103Z"/>
</mask>
<path fill-rule="evenodd" clip-rule="evenodd" d="M855.814 41.1103L845.914 36.3151L841.681 45.0538C841.675 45.0657 841.669 45.0778 841.663 45.0899C841.657 45.102 841.652 45.1142 841.646 45.1264L841.461 45.5078L841.511 45.5319C841.167 47.1156 842.703 49.2045 845.196 50.4125C847.69 51.6204 850.281 51.53 851.311 50.2786L851.361 50.303L855.814 41.1103Z" fill="#AFB4C4"/>
<path d="M845.914 36.3151L846.35 35.4151L845.45 34.9792L845.014 35.8792L845.914 36.3151ZM855.814 41.1103L856.714 41.5463L857.15 40.6463L856.25 40.2104L855.814 41.1103ZM841.681 45.0538L842.572 45.5081L842.577 45.499L842.581 45.4897L841.681 45.0538ZM841.646 45.1264L842.546 45.5623L842.551 45.5531L842.555 45.5437L841.646 45.1264ZM841.461 45.5078L840.561 45.0719L840.125 45.9718L841.025 46.4078L841.461 45.5078ZM841.511 45.5319L842.488 45.7439L842.655 44.9749L841.947 44.6319L841.511 45.5319ZM851.311 50.2786L851.747 49.3786L851.038 49.0356L850.538 49.6432L851.311 50.2786ZM851.361 50.303L850.925 51.203L851.825 51.6389L852.261 50.7389L851.361 50.303ZM845.478 37.2151L855.378 42.0103L856.25 40.2104L846.35 35.4151L845.478 37.2151ZM842.581 45.4897L846.814 36.7511L845.014 35.8792L840.781 44.6178L842.581 45.4897ZM842.563 45.5258C842.566 45.5199 842.569 45.514 842.572 45.5081L840.79 44.5994C840.781 44.6175 840.772 44.6357 840.763 44.654L842.563 45.5258ZM842.555 45.5437C842.558 45.5378 842.56 45.5318 842.563 45.5258L840.763 44.654C840.754 44.6723 840.746 44.6907 840.737 44.7091L842.555 45.5437ZM842.361 45.9437L842.546 45.5623L840.746 44.6905L840.561 45.0719L842.361 45.9437ZM841.947 44.6319L841.897 44.6078L841.025 46.4078L841.075 46.4319L841.947 44.6319ZM845.632 49.5125C844.509 48.9683 843.634 48.24 843.09 47.5136C842.531 46.7672 842.402 46.1435 842.488 45.7439L840.534 45.3198C840.277 46.504 840.743 47.7166 841.489 48.7126C842.25 49.7285 843.39 50.6487 844.761 51.3124L845.632 49.5125ZM850.538 49.6432C850.279 49.9589 849.709 50.2441 848.777 50.2681C847.869 50.2915 846.756 50.0567 845.632 49.5125L844.761 51.3124C846.131 51.9762 847.559 52.3001 848.828 52.2674C850.072 52.2354 851.313 51.8496 852.083 50.9139L850.538 49.6432ZM851.797 49.403L851.747 49.3786L850.875 51.1785L850.925 51.203L851.797 49.403ZM854.914 40.6744L850.461 49.8671L852.261 50.7389L856.714 41.5463L854.914 40.6744Z" fill="#142251" fill-opacity="0.44" mask="url(#path-17-inside-1_0_2927)"/>
<ellipse cx="853.263" cy="33.763" rx="9.5" ry="7.5" transform="rotate(25.8444 853.263 33.763)" fill="#AFB4C4"/>
<path d="M861.363 37.6864C859.722 41.0724 854.79 42.2805 850.211 40.0629C845.633 37.8452 843.523 33.2256 845.163 29.8397C846.803 26.4537 851.736 25.2455 856.314 27.4631C860.893 29.6808 863.003 34.3004 861.363 37.6864Z" stroke="#142251" stroke-opacity="0.44"/>
<ellipse cx="850.549" cy="31.3373" rx="4" ry="3.5" transform="rotate(25.8444 850.549 31.3373)" fill="#E4E7F1"/>
<rect x="841.668" y="54.2585" width="2" height="13" transform="rotate(25.8444 841.668 54.2585)" fill="#9DA7CA"/>
<circle cx="1194" cy="228" r="4" fill="#142251"/>
<ellipse cx="1203.5" cy="209.713" rx="11.5" ry="8" transform="rotate(25.8444 1203.5 209.713)" fill="#AFB4C4"/>
<path d="M1213.4 214.508C1212.53 216.308 1210.67 217.477 1208.28 217.855C1205.89 218.233 1203.01 217.808 1200.24 216.463C1197.46 215.117 1195.34 213.125 1194.16 211.014C1192.97 208.902 1192.73 206.717 1193.61 204.918C1194.48 203.118 1196.34 201.949 1198.73 201.571C1201.12 201.193 1204 201.618 1206.77 202.963C1209.55 204.308 1211.67 206.301 1212.85 208.412C1214.04 210.524 1214.28 212.708 1213.4 214.508Z" stroke="#142251" stroke-opacity="0.44"/>
<mask id="path-26-inside-2_0_2927" fill="white">
<path fill-rule="evenodd" clip-rule="evenodd" d="M1212.81 203.11L1202.91 198.315L1198.68 207.054C1198.68 207.066 1198.67 207.078 1198.66 207.09C1198.66 207.102 1198.65 207.114 1198.65 207.126L1198.46 207.508L1198.51 207.532C1198.17 209.116 1199.7 211.205 1202.2 212.412C1204.69 213.62 1207.28 213.53 1208.31 212.279L1208.36 212.303L1212.81 203.11Z"/>
</mask>
<path fill-rule="evenodd" clip-rule="evenodd" d="M1212.81 203.11L1202.91 198.315L1198.68 207.054C1198.68 207.066 1198.67 207.078 1198.66 207.09C1198.66 207.102 1198.65 207.114 1198.65 207.126L1198.46 207.508L1198.51 207.532C1198.17 209.116 1199.7 211.205 1202.2 212.412C1204.69 213.62 1207.28 213.53 1208.31 212.279L1208.36 212.303L1212.81 203.11Z" fill="#AFB4C4"/>
<path d="M1202.91 198.315L1203.35 197.415L1202.45 196.979L1202.01 197.879L1202.91 198.315ZM1212.81 203.11L1213.71 203.546L1214.15 202.646L1213.25 202.21L1212.81 203.11ZM1198.68 207.054L1199.57 207.508L1199.58 207.499L1199.58 207.49L1198.68 207.054ZM1198.65 207.126L1199.55 207.562L1199.55 207.553L1199.55 207.544L1198.65 207.126ZM1198.46 207.508L1197.56 207.072L1197.13 207.972L1198.03 208.408L1198.46 207.508ZM1198.51 207.532L1199.49 207.744L1199.66 206.975L1198.95 206.632L1198.51 207.532ZM1208.31 212.279L1208.75 211.379L1208.04 211.036L1207.54 211.643L1208.31 212.279ZM1208.36 212.303L1207.93 213.203L1208.83 213.639L1209.26 212.739L1208.36 212.303ZM1202.48 199.215L1212.38 204.01L1213.25 202.21L1203.35 197.415L1202.48 199.215ZM1199.58 207.49L1203.81 198.751L1202.01 197.879L1197.78 206.618L1199.58 207.49ZM1199.56 207.526C1199.57 207.52 1199.57 207.514 1199.57 207.508L1197.79 206.599C1197.78 206.617 1197.77 206.636 1197.76 206.654L1199.56 207.526ZM1199.55 207.544C1199.56 207.538 1199.56 207.532 1199.56 207.526L1197.76 206.654C1197.75 206.672 1197.75 206.691 1197.74 206.709L1199.55 207.544ZM1199.36 207.944L1199.55 207.562L1197.75 206.69L1197.56 207.072L1199.36 207.944ZM1198.95 206.632L1198.9 206.608L1198.03 208.408L1198.08 208.432L1198.95 206.632ZM1202.63 211.512C1201.51 210.968 1200.63 210.24 1200.09 209.514C1199.53 208.767 1199.4 208.143 1199.49 207.744L1197.53 207.32C1197.28 208.504 1197.74 209.717 1198.49 210.713C1199.25 211.729 1200.39 212.649 1201.76 213.312L1202.63 211.512ZM1207.54 211.643C1207.28 211.959 1206.71 212.244 1205.78 212.268C1204.87 212.291 1203.76 212.057 1202.63 211.512L1201.76 213.312C1203.13 213.976 1204.56 214.3 1205.83 214.267C1207.07 214.235 1208.31 213.85 1209.08 212.914L1207.54 211.643ZM1208.8 211.403L1208.75 211.379L1207.87 213.179L1207.93 213.203L1208.8 211.403ZM1211.91 202.674L1207.46 211.867L1209.26 212.739L1213.71 203.546L1211.91 202.674Z" fill="#142251" fill-opacity="0.44" mask="url(#path-26-inside-2_0_2927)"/>
<ellipse cx="1210.26" cy="195.763" rx="9.5" ry="7.5" transform="rotate(25.8444 1210.26 195.763)" fill="#AFB4C4"/>
<path d="M1218.36 199.686C1216.72 203.072 1211.79 204.281 1207.21 202.063C1202.63 199.845 1200.52 195.226 1202.16 191.84C1203.8 188.454 1208.74 187.245 1213.31 189.463C1217.89 191.681 1220 196.3 1218.36 199.686Z" stroke="#142251" stroke-opacity="0.44"/>
<ellipse cx="1207.55" cy="193.337" rx="4" ry="3.5" transform="rotate(25.8444 1207.55 193.337)" fill="#E4E7F1"/>
<rect x="1198.67" y="216.259" width="2" height="13" transform="rotate(25.8444 1198.67 216.259)" fill="#9DA7CA"/>
<circle cx="1495" cy="107" r="4" fill="#142251"/>
<ellipse cx="1504.5" cy="88.7128" rx="11.5" ry="8" transform="rotate(25.8444 1504.5 88.7128)" fill="#AFB4C4"/>
<path d="M1514.4 93.508C1513.53 95.3078 1511.67 96.4766 1509.28 96.8548C1506.89 97.2327 1504.01 96.808 1501.24 95.4626C1498.46 94.1172 1496.34 92.1247 1495.16 90.0141C1493.97 87.9015 1493.73 85.7173 1494.61 83.9176C1495.48 82.1178 1497.34 80.949 1499.73 80.5707C1502.12 80.1928 1505 80.6175 1507.77 81.9629C1510.55 83.3083 1512.67 85.3009 1513.85 87.4115C1515.04 89.524 1515.28 91.7082 1514.4 93.508Z" stroke="#142251" stroke-opacity="0.44"/>
<mask id="path-35-inside-3_0_2927" fill="white">
<path fill-rule="evenodd" clip-rule="evenodd" d="M1513.81 82.1103L1503.91 77.3151L1499.68 86.0538C1499.68 86.0657 1499.67 86.0778 1499.66 86.0899C1499.66 86.102 1499.65 86.1142 1499.65 86.1264L1499.46 86.5078L1499.51 86.5319C1499.17 88.1156 1500.7 90.2045 1503.2 91.4125C1505.69 92.6204 1508.28 92.53 1509.31 91.2786L1509.36 91.303L1513.81 82.1103Z"/>
</mask>
<path fill-rule="evenodd" clip-rule="evenodd" d="M1513.81 82.1103L1503.91 77.3151L1499.68 86.0538C1499.68 86.0657 1499.67 86.0778 1499.66 86.0899C1499.66 86.102 1499.65 86.1142 1499.65 86.1264L1499.46 86.5078L1499.51 86.5319C1499.17 88.1156 1500.7 90.2045 1503.2 91.4125C1505.69 92.6204 1508.28 92.53 1509.31 91.2786L1509.36 91.303L1513.81 82.1103Z" fill="#AFB4C4"/>
<path d="M1503.91 77.3151L1504.35 76.4151L1503.45 75.9792L1503.01 76.8792L1503.91 77.3151ZM1513.81 82.1103L1514.71 82.5463L1515.15 81.6463L1514.25 81.2104L1513.81 82.1103ZM1499.68 86.0538L1500.57 86.5081L1500.58 86.499L1500.58 86.4897L1499.68 86.0538ZM1499.65 86.1264L1500.55 86.5623L1500.55 86.5531L1500.55 86.5437L1499.65 86.1264ZM1499.46 86.5078L1498.56 86.0719L1498.13 86.9718L1499.03 87.4078L1499.46 86.5078ZM1499.51 86.5319L1500.49 86.7439L1500.66 85.9749L1499.95 85.6319L1499.51 86.5319ZM1509.31 91.2786L1509.75 90.3786L1509.04 90.0356L1508.54 90.6432L1509.31 91.2786ZM1509.36 91.303L1508.93 92.203L1509.83 92.6389L1510.26 91.7389L1509.36 91.303ZM1503.48 78.2151L1513.38 83.0103L1514.25 81.2104L1504.35 76.4151L1503.48 78.2151ZM1500.58 86.4897L1504.81 77.7511L1503.01 76.8792L1498.78 85.6178L1500.58 86.4897ZM1500.56 86.5258C1500.57 86.5199 1500.57 86.514 1500.57 86.5081L1498.79 85.5994C1498.78 85.6175 1498.77 85.6357 1498.76 85.654L1500.56 86.5258ZM1500.55 86.5437C1500.56 86.5378 1500.56 86.5318 1500.56 86.5258L1498.76 85.654C1498.75 85.6723 1498.75 85.6907 1498.74 85.7091L1500.55 86.5437ZM1500.36 86.9437L1500.55 86.5623L1498.75 85.6905L1498.56 86.0719L1500.36 86.9437ZM1499.95 85.6319L1499.9 85.6078L1499.03 87.4078L1499.08 87.4319L1499.95 85.6319ZM1503.63 90.5125C1502.51 89.9683 1501.63 89.24 1501.09 88.5136C1500.53 87.7672 1500.4 87.1435 1500.49 86.7439L1498.53 86.3198C1498.28 87.504 1498.74 88.7166 1499.49 89.7126C1500.25 90.7285 1501.39 91.6487 1502.76 92.3124L1503.63 90.5125ZM1508.54 90.6432C1508.28 90.9589 1507.71 91.2441 1506.78 91.2681C1505.87 91.2915 1504.76 91.0567 1503.63 90.5125L1502.76 92.3124C1504.13 92.9762 1505.56 93.3001 1506.83 93.2674C1508.07 93.2354 1509.31 92.8496 1510.08 91.9139L1508.54 90.6432ZM1509.8 90.403L1509.75 90.3786L1508.87 92.1785L1508.93 92.203L1509.8 90.403ZM1512.91 81.6744L1508.46 90.8671L1510.26 91.7389L1514.71 82.5463L1512.91 81.6744Z" fill="#142251" fill-opacity="0.44" mask="url(#path-35-inside-3_0_2927)"/>
<ellipse cx="1511.26" cy="74.763" rx="9.5" ry="7.5" transform="rotate(25.8444 1511.26 74.763)" fill="#AFB4C4"/>
<path d="M1519.36 78.6864C1517.72 82.0724 1512.79 83.2805 1508.21 81.0629C1503.63 78.8452 1501.52 74.2256 1503.16 70.8397C1504.8 67.4537 1509.74 66.2455 1514.31 68.4631C1518.89 70.6808 1521 75.3004 1519.36 78.6864Z" stroke="#142251" stroke-opacity="0.44"/>
<ellipse cx="1508.55" cy="72.3372" rx="4" ry="3.5" transform="rotate(25.8444 1508.55 72.3372)" fill="#E4E7F1"/>
<rect x="1499.67" y="95.2585" width="2" height="13" transform="rotate(25.8444 1499.67 95.2585)" fill="#9DA7CA"/>
<g opacity="0.44">
<path d="M205 52L837 67.5L1193 228.5" stroke="#142251"/>
<path d="M1193.5 228.5L1495 107" stroke="#142251"/>
</g>
<circle cx="205" cy="51" r="4" fill="#142251"/>
<ellipse cx="214.505" cy="32.7128" rx="11.5" ry="8" transform="rotate(25.8444 214.505 32.7128)" fill="#AFB4C4"/>
<path d="M224.405 37.508C223.533 39.3078 221.673 40.4766 219.279 40.8548C216.888 41.2327 214.013 40.808 211.235 39.4626C208.458 38.1172 206.342 36.1247 205.156 34.0141C203.969 31.9015 203.733 29.7173 204.605 27.9176C205.477 26.1178 207.337 24.949 209.73 24.5707C212.122 24.1928 214.997 24.6175 217.774 25.9629C220.552 27.3083 222.667 29.3009 223.853 31.4115C225.04 33.524 225.276 35.7082 224.405 37.508Z" stroke="#142251" stroke-opacity="0.44"/>
<mask id="path-46-inside-4_0_2927" fill="white">
<path fill-rule="evenodd" clip-rule="evenodd" d="M223.814 26.1103L213.914 21.3151L209.681 30.0538C209.675 30.0657 209.669 30.0778 209.663 30.0899C209.657 30.102 209.652 30.1142 209.646 30.1264L209.461 30.5078L209.511 30.5319C209.167 32.1156 210.703 34.2045 213.196 35.4125C215.69 36.6204 218.281 36.53 219.311 35.2786L219.361 35.303L223.814 26.1103Z"/>
</mask>
<path fill-rule="evenodd" clip-rule="evenodd" d="M223.814 26.1103L213.914 21.3151L209.681 30.0538C209.675 30.0657 209.669 30.0778 209.663 30.0899C209.657 30.102 209.652 30.1142 209.646 30.1264L209.461 30.5078L209.511 30.5319C209.167 32.1156 210.703 34.2045 213.196 35.4125C215.69 36.6204 218.281 36.53 219.311 35.2786L219.361 35.303L223.814 26.1103Z" fill="#AFB4C4"/>
<path d="M213.914 21.3151L214.35 20.4151L213.45 19.9792L213.014 20.8792L213.914 21.3151ZM223.814 26.1103L224.714 26.5463L225.15 25.6463L224.25 25.2104L223.814 26.1103ZM209.681 30.0538L210.572 30.5081L210.577 30.499L210.581 30.4897L209.681 30.0538ZM209.646 30.1264L210.546 30.5623L210.551 30.5531L210.555 30.5437L209.646 30.1264ZM209.461 30.5078L208.561 30.0719L208.125 30.9718L209.025 31.4078L209.461 30.5078ZM209.511 30.5319L210.488 30.7439L210.655 29.9749L209.947 29.6319L209.511 30.5319ZM219.311 35.2786L219.747 34.3786L219.038 34.0356L218.538 34.6432L219.311 35.2786ZM219.361 35.303L218.925 36.203L219.825 36.6389L220.261 35.7389L219.361 35.303ZM213.478 22.2151L223.378 27.0103L224.25 25.2104L214.35 20.4151L213.478 22.2151ZM210.581 30.4897L214.814 21.7511L213.014 20.8792L208.781 29.6178L210.581 30.4897ZM210.563 30.5258C210.566 30.5199 210.569 30.514 210.572 30.5081L208.79 29.5994C208.781 29.6175 208.772 29.6357 208.763 29.654L210.563 30.5258ZM210.555 30.5437C210.558 30.5378 210.56 30.5318 210.563 30.5258L208.763 29.654C208.754 29.6723 208.746 29.6907 208.737 29.7091L210.555 30.5437ZM210.361 30.9437L210.546 30.5623L208.746 29.6905L208.561 30.0719L210.361 30.9437ZM209.947 29.6319L209.897 29.6078L209.025 31.4078L209.075 31.4319L209.947 29.6319ZM213.632 34.5125C212.509 33.9683 211.634 33.24 211.09 32.5136C210.531 31.7672 210.402 31.1435 210.488 30.7439L208.534 30.3198C208.277 31.504 208.743 32.7166 209.489 33.7126C210.25 34.7285 211.39 35.6487 212.761 36.3124L213.632 34.5125ZM218.538 34.6432C218.279 34.9589 217.709 35.2441 216.777 35.2681C215.869 35.2915 214.756 35.0567 213.632 34.5125L212.761 36.3124C214.131 36.9762 215.559 37.3001 216.828 37.2674C218.072 37.2354 219.313 36.8496 220.083 35.9139L218.538 34.6432ZM219.797 34.403L219.747 34.3786L218.875 36.1785L218.925 36.203L219.797 34.403ZM222.914 25.6744L218.461 34.8671L220.261 35.7389L224.714 26.5463L222.914 25.6744Z" fill="#142251" fill-opacity="0.44" mask="url(#path-46-inside-4_0_2927)"/>
<ellipse cx="221.263" cy="18.763" rx="9.5" ry="7.5" transform="rotate(25.8444 221.263 18.763)" fill="#AFB4C4"/>
<path d="M229.363 22.6864C227.722 26.0724 222.79 27.2805 218.211 25.0629C213.633 22.8452 211.523 18.2256 213.163 14.8397C214.803 11.4537 219.736 10.2455 224.314 12.4631C228.893 14.6808 231.003 19.3004 229.363 22.6864Z" stroke="#142251" stroke-opacity="0.44"/>
<g filter="url(#filter1_f_0_2927)">
<ellipse cx="218.549" cy="16.3373" rx="4" ry="3.5" transform="rotate(25.8444 218.549 16.3373)" fill="#E4E7F1"/>
</g>
<rect x="209.668" y="39.2585" width="2" height="13" transform="rotate(25.8444 209.668 39.2585)" fill="#9DA7CA"/>
<defs>
<filter id="filter0_b_0_2927" x="-40" y="-40" width="584.997" height="460.989" filterUnits="userSpaceOnUse" color-interpolation-filters="sRGB">
<feFlood flood-opacity="0" result="BackgroundImageFix"/>
<feGaussianBlur in="BackgroundImage" stdDeviation="20"/>
<feComposite in2="SourceAlpha" operator="in" result="effect1_backgroundBlur_0_2927"/>
<feBlend mode="normal" in="SourceGraphic" in2="effect1_backgroundBlur_0_2927" result="shape"/>
</filter>
<filter id="filter1_f_0_2927" x="210.638" y="8.73633" width="15.8218" height="15.2019" filterUnits="userSpaceOnUse" color-interpolation-filters="sRGB">
<feFlood flood-opacity="0" result="BackgroundImageFix"/>
<feBlend mode="normal" in="SourceGraphic" in2="BackgroundImageFix" result="shape"/>
<feGaussianBlur stdDeviation="2" result="effect1_foregroundBlur_0_2927"/>
</filter>
<clipPath id="clip0_0_2927">
<rect y="94.3918" width="454" height="293" rx="22" transform="rotate(-12 0 94.3918)" fill="white"/>
</clipPath>
<clipPath id="clip1_0_2927">
<rect width="24" height="24" fill="white" transform="translate(18.977 106.716) rotate(-12)"/>
</clipPath>
<clipPath id="clip2_0_2927">
<rect width="24" height="24" fill="white" transform="translate(353.063 35.7031) rotate(-12)"/>
</clipPath>
</defs>
</svg>
