<svg width="385" height="186" viewBox="0 0 385 186" fill="none" xmlns="http://www.w3.org/2000/svg">
<rect x="9.48438" y="86.7373" width="4.74173" height="13.216" fill="#142251"/>
<rect x="18.9668" y="90.0415" width="4.74173" height="6.60801" fill="#142251"/>
<rect y="90.0415" width="4.74173" height="6.60801" fill="#142251"/>
<rect x="28.4512" y="90.0415" width="4.74173" height="6.60801" fill="#142251"/>
<rect x="37.9336" y="90.0415" width="4.74173" height="6.60801" fill="#142251"/>
<rect x="47.418" y="86.7373" width="4.74173" height="13.216" fill="#142251"/>
<rect x="56.9004" y="83.4333" width="4.74173" height="19.824" fill="#142251"/>
<rect x="66.3848" y="57.0015" width="4.74174" height="72.6881" fill="#142251"/>
<rect x="75.8672" y="60.3052" width="4.74173" height="66.0801" fill="#142251"/>
<rect x="85.3516" y="73.5212" width="4.74173" height="39.6481" fill="#142251"/>
<rect x="94.834" y="40.4814" width="4.74173" height="105.728" fill="#142251"/>
<rect x="104.318" y="50.3933" width="4.74172" height="85.9041" fill="#142251"/>
<rect x="113.801" y="0.833252" width="4.74174" height="185.024" fill="#142251"/>
<rect x="123.285" y="10.7454" width="4.74173" height="165.2" fill="#142251"/>
<rect x="132.768" y="27.2654" width="4.74173" height="132.16" fill="#142251"/>
<rect x="142.252" y="17.3533" width="4.74174" height="151.984" fill="#142251"/>
<rect x="151.736" y="47.0894" width="4.74171" height="92.5121" fill="#142251"/>
<rect x="161.219" y="66.9133" width="4.74173" height="52.8641" fill="#142251"/>
<rect x="170.703" y="76.8252" width="4.74173" height="33.04" fill="#142251"/>
<rect x="180.186" y="63.6094" width="4.74173" height="59.4721" fill="#142251"/>
<rect x="189.67" y="76.8252" width="4.74173" height="33.04" fill="#142251"/>
<rect x="208.637" y="60.3052" width="4.74173" height="66.0801" fill="#AFB4C4"/>
<rect x="218.119" y="80.1294" width="4.74171" height="26.432" fill="#AFB4C4"/>
<rect x="227.604" y="73.5212" width="4.74173" height="39.6481" fill="#AFB4C4"/>
<rect x="237.086" y="76.8252" width="4.74173" height="33.04" fill="#AFB4C4"/>
<rect x="246.57" y="80.1294" width="4.74173" height="26.432" fill="#AFB4C4"/>
<rect x="256.053" y="86.7373" width="4.74173" height="13.216" fill="#AFB4C4"/>
<rect x="265.537" y="83.4333" width="4.74173" height="19.824" fill="#AFB4C4"/>
<rect x="275.02" y="80.1294" width="4.74173" height="26.432" fill="#AFB4C4"/>
<rect x="284.504" y="90.0415" width="4.74173" height="6.60801" fill="#AFB4C4"/>
<rect x="293.986" y="86.7373" width="4.74175" height="13.216" fill="#AFB4C4"/>
<rect x="303.471" y="86.7373" width="4.74173" height="13.216" fill="#AFB4C4"/>
<rect x="312.955" y="90.0415" width="4.74173" height="6.60801" fill="#AFB4C4"/>
<rect x="322.438" y="86.7373" width="4.74173" height="13.216" fill="#AFB4C4"/>
<rect x="331.922" y="90.0415" width="4.74173" height="6.60801" fill="#AFB4C4"/>
<rect x="341.404" y="90.0415" width="4.74173" height="6.60801" fill="#AFB4C4"/>
<rect x="350.889" y="90.0415" width="4.74173" height="6.60801" fill="#AFB4C4"/>
<rect x="360.371" y="90.0415" width="4.74173" height="6.60801" fill="#AFB4C4"/>
<rect x="369.855" y="90.0415" width="4.74173" height="6.60801" fill="#AFB4C4"/>
<rect x="379.338" y="90.0415" width="4.74173" height="6.60801" fill="#AFB4C4"/>
</svg>
