<svg width="800" height="240" viewBox="0 0 800 240" fill="none" xmlns="http://www.w3.org/2000/svg">
<path d="M64.86 128.592C67.884 129.88 70.236 131.756 71.916 134.22C73.596 136.684 74.436 139.596 74.436 142.956C74.436 147.996 72.532 152.112 68.724 155.304C64.972 158.496 59.988 160.092 53.772 160.092C48.116 160.092 43.552 158.832 40.08 156.312C36.664 153.792 34.256 150.544 32.856 146.568L39.492 142.788C41.228 149.396 45.988 152.7 53.772 152.7C57.86 152.7 61.024 151.804 63.264 150.012C65.504 148.164 66.624 145.728 66.624 142.704C66.624 139.68 65.56 137.244 63.432 135.396C61.36 133.548 58.448 132.624 54.696 132.624H47.808V125.484H52.764C56.348 125.484 59.204 124.616 61.332 122.88C63.46 121.088 64.524 118.764 64.524 115.908C64.524 113.108 63.516 110.84 61.5 109.104C59.54 107.312 56.796 106.416 53.268 106.416C46.772 106.416 42.432 109.3 40.248 115.068L33.696 111.288C37.224 103.168 43.748 99.108 53.268 99.108C58.924 99.108 63.488 100.676 66.96 103.812C70.488 106.948 72.252 110.924 72.252 115.74C72.252 121.34 69.788 125.624 64.86 128.592ZM114.374 117H121.682V159H114.374V151.776C110.734 157.32 105.442 160.092 98.4981 160.092C92.6181 160.092 87.6061 157.964 83.4621 153.708C79.3181 149.396 77.2461 144.16 77.2461 138C77.2461 131.84 79.3181 126.632 83.4621 122.376C87.6061 118.064 92.6181 115.908 98.4981 115.908C105.442 115.908 110.734 118.68 114.374 124.224V117ZM99.4221 153.036C103.678 153.036 107.234 151.608 110.09 148.752C112.946 145.84 114.374 142.256 114.374 138C114.374 133.744 112.946 130.188 110.09 127.332C107.234 124.42 103.678 122.964 99.4221 122.964C95.2221 122.964 91.6941 124.42 88.8381 127.332C85.9821 130.188 84.5541 133.744 84.5541 138C84.5541 142.256 85.9821 145.84 88.8381 148.752C91.6941 151.608 95.2221 153.036 99.4221 153.036ZM160.81 117V159H153.586V143.88H147.454L135.694 159H126.79L139.054 143.46C135.918 142.676 133.37 141.108 131.41 138.756C129.45 136.404 128.47 133.66 128.47 130.524C128.47 126.66 129.842 123.44 132.586 120.864C135.33 118.288 138.774 117 142.918 117H160.81ZM143.17 137.328H153.586V123.804H143.17C141.098 123.804 139.334 124.42 137.878 125.652C136.422 126.884 135.694 128.536 135.694 130.608C135.694 132.624 136.422 134.248 137.878 135.48C139.334 136.712 141.098 137.328 143.17 137.328ZM196.498 137.412C200.81 139.204 202.966 142.452 202.966 147.156C202.966 150.628 201.79 153.484 199.438 155.724C197.142 157.908 193.838 159 189.526 159H168.526V117H187.846C192.046 117 195.295 118.064 197.591 120.192C199.886 122.264 201.034 125.008 201.034 128.424C201.034 132.456 199.522 135.452 196.498 137.412ZM187.511 123.552H175.666V134.556H187.511C191.767 134.556 193.895 132.68 193.895 128.928C193.895 125.344 191.767 123.552 187.511 123.552ZM189.106 152.364C191.234 152.364 192.858 151.86 193.978 150.852C195.154 149.844 195.742 148.416 195.742 146.568C195.742 144.832 195.154 143.488 193.978 142.536C192.858 141.528 191.234 141.024 189.106 141.024H175.666V152.364H189.106ZM243.027 159H233.955L214.803 139.092V159H207.495V117H214.803V135.564L232.947 117H242.355L222.279 137.328L243.027 159ZM277.383 117H284.691V159H277.383V151.776C273.743 157.32 268.451 160.092 261.507 160.092C255.627 160.092 250.615 157.964 246.471 153.708C242.327 149.396 240.255 144.16 240.255 138C240.255 131.84 242.327 126.632 246.471 122.376C250.615 118.064 255.627 115.908 261.507 115.908C268.451 115.908 273.743 118.68 277.383 124.224V117ZM262.431 153.036C266.687 153.036 270.243 151.608 273.099 148.752C275.955 145.84 277.383 142.256 277.383 138C277.383 133.744 275.955 130.188 273.099 127.332C270.243 124.42 266.687 122.964 262.431 122.964C258.231 122.964 254.703 124.42 251.847 127.332C248.991 130.188 247.563 133.744 247.563 138C247.563 142.256 248.991 145.84 251.847 148.752C254.703 151.608 258.231 153.036 262.431 153.036ZM345.492 153.708C341.18 157.964 335.944 160.092 329.784 160.092C323.624 160.092 318.388 157.964 314.076 153.708C309.82 149.452 307.692 144.216 307.692 138C307.692 131.784 309.82 126.548 314.076 122.292C318.388 118.036 323.624 115.908 329.784 115.908C335.944 115.908 341.18 118.036 345.492 122.292C349.804 126.548 351.96 131.784 351.96 138C351.96 144.216 349.804 149.452 345.492 153.708ZM329.784 152.952C333.984 152.952 337.512 151.524 340.368 148.668C343.224 145.812 344.652 142.256 344.652 138C344.652 133.744 343.224 130.188 340.368 127.332C337.512 124.476 333.984 123.048 329.784 123.048C325.64 123.048 322.14 124.476 319.284 127.332C316.428 130.188 315 133.744 315 138C315 142.256 316.428 145.812 319.284 148.668C322.14 151.524 325.64 152.952 329.784 152.952ZM386.822 117V124.056H372.542V159H365.234V124.056H350.87V117H386.822ZM426.239 117V159H418.931V123.972H397.175V159H389.867V117H426.239ZM457.187 115.908C463.067 115.908 468.079 118.064 472.223 122.376C476.367 126.632 478.439 131.84 478.439 138C478.439 144.16 476.367 149.396 472.223 153.708C468.079 157.964 463.067 160.092 457.187 160.092C450.243 160.092 444.951 157.32 441.311 151.776V175.8H434.003V117H441.311V124.224C444.951 118.68 450.243 115.908 457.187 115.908ZM456.263 153.036C460.463 153.036 463.991 151.608 466.847 148.752C469.703 145.84 471.131 142.256 471.131 138C471.131 133.744 469.703 130.188 466.847 127.332C463.991 124.42 460.463 122.964 456.263 122.964C452.007 122.964 448.451 124.42 445.595 127.332C442.739 130.188 441.311 133.744 441.311 138C441.311 142.256 442.739 145.84 445.595 148.752C448.451 151.608 452.007 153.036 456.263 153.036ZM518.575 117H525.883V159H518.575V151.776C514.935 157.32 509.643 160.092 502.699 160.092C496.819 160.092 491.807 157.964 487.663 153.708C483.519 149.396 481.447 144.16 481.447 138C481.447 131.84 483.519 126.632 487.663 122.376C491.807 118.064 496.819 115.908 502.699 115.908C509.643 115.908 514.935 118.68 518.575 124.224V117ZM503.623 153.036C507.879 153.036 511.435 151.608 514.291 148.752C517.147 145.84 518.575 142.256 518.575 138C518.575 133.744 517.147 130.188 514.291 127.332C511.435 124.42 507.879 122.964 503.623 122.964C499.423 122.964 495.895 124.42 493.039 127.332C490.183 130.188 488.755 133.744 488.755 138C488.755 142.256 490.183 145.84 493.039 148.752C495.895 151.608 499.423 153.036 503.623 153.036ZM561.567 137.412C565.879 139.204 568.035 142.452 568.035 147.156C568.035 150.628 566.859 153.484 564.507 155.724C562.211 157.908 558.907 159 554.595 159H533.595V117H552.915C557.115 117 560.363 118.064 562.659 120.192C564.955 122.264 566.103 125.008 566.103 128.424C566.103 132.456 564.591 135.452 561.567 137.412ZM552.579 123.552H540.735V134.556H552.579C556.835 134.556 558.963 132.68 558.963 128.928C558.963 125.344 556.835 123.552 552.579 123.552ZM554.175 152.364C556.303 152.364 557.927 151.86 559.047 150.852C560.223 149.844 560.811 148.416 560.811 146.568C560.811 144.832 560.223 143.488 559.047 142.536C557.927 141.528 556.303 141.024 554.175 141.024H540.735V152.364H554.175ZM606.361 117V159H599.053V124.056H582.505V141.192C582.505 148.08 581.105 152.896 578.305 155.64C575.561 158.328 571.669 159.448 566.629 159V152.112C569.485 152.504 571.613 151.888 573.013 150.264C574.469 148.584 575.197 145.504 575.197 141.024V117H606.361ZM619.198 141.36C619.926 145.112 621.634 148.024 624.322 150.096C627.066 152.168 630.426 153.204 634.402 153.204C639.946 153.204 643.978 151.16 646.498 147.072L652.714 150.6C648.626 156.928 642.466 160.092 634.234 160.092C627.57 160.092 622.138 158.02 617.938 153.876C613.794 149.676 611.722 144.384 611.722 138C611.722 131.672 613.766 126.408 617.854 122.208C621.942 118.008 627.234 115.908 633.73 115.908C639.89 115.908 644.902 118.092 648.766 122.46C652.686 126.772 654.646 131.98 654.646 138.084C654.646 139.148 654.562 140.24 654.394 141.36H619.198ZM633.73 122.796C629.81 122.796 626.562 123.916 623.986 126.156C621.41 128.34 619.814 131.28 619.198 134.976H647.254C646.638 131 645.07 127.976 642.55 125.904C640.03 123.832 637.09 122.796 633.73 122.796ZM688.751 117H696.059V159H688.751V141.444H666.995V159H659.687V117H666.995V134.472H688.751V117ZM738.599 117H745.907V159H738.599V151.776C734.959 157.32 729.667 160.092 722.723 160.092C716.843 160.092 711.831 157.964 707.687 153.708C703.543 149.396 701.471 144.16 701.471 138C701.471 131.84 703.543 126.632 707.687 122.376C711.831 118.064 716.843 115.908 722.723 115.908C729.667 115.908 734.959 118.68 738.599 124.224V117ZM723.647 153.036C727.903 153.036 731.459 151.608 734.315 148.752C737.171 145.84 738.599 142.256 738.599 138C738.599 133.744 737.171 130.188 734.315 127.332C731.459 124.42 727.903 122.964 723.647 122.964C719.447 122.964 715.919 124.42 713.063 127.332C710.207 130.188 708.779 133.744 708.779 138C708.779 142.256 710.207 145.84 713.063 148.752C715.919 151.608 719.447 153.036 723.647 153.036ZM755.467 141.78L753.871 117V100.2H762.691V117L761.095 141.78H755.467ZM758.239 159.924C756.727 159.924 755.439 159.392 754.375 158.328C753.311 157.264 752.779 155.976 752.779 154.464C752.779 152.952 753.311 151.664 754.375 150.6C755.439 149.536 756.727 149.004 758.239 149.004C759.807 149.004 761.095 149.536 762.103 150.6C763.167 151.664 763.699 152.952 763.699 154.464C763.699 155.976 763.167 157.264 762.103 158.328C761.095 159.392 759.807 159.924 758.239 159.924Z" fill="#142251"/>
<path d="M17.272 206.2H20.4V230H17.272V219.29H5.712V230H2.55V206.2H5.712V216.298H17.272V206.2ZM38.2434 213H41.2014V230H38.2434V227.076C36.77 229.32 34.628 230.442 31.8174 230.442C29.4374 230.442 27.4087 229.581 25.7314 227.858C24.054 226.113 23.2154 223.993 23.2154 221.5C23.2154 219.007 24.054 216.899 25.7314 215.176C27.4087 213.431 29.4374 212.558 31.8174 212.558C34.628 212.558 36.77 213.68 38.2434 215.924V213ZM32.1914 227.586C33.914 227.586 35.3534 227.008 36.5094 225.852C37.6654 224.673 38.2434 223.223 38.2434 221.5C38.2434 219.777 37.6654 218.338 36.5094 217.182C35.3534 216.003 33.914 215.414 32.1914 215.414C30.4914 215.414 29.0634 216.003 27.9074 217.182C26.7514 218.338 26.1734 219.777 26.1734 221.5C26.1734 223.223 26.7514 224.673 27.9074 225.852C29.0634 227.008 30.4914 227.586 32.1914 227.586ZM64.995 213H67.953V230H44.663V213H47.621V227.178H54.829V213H57.787V227.178H64.995V213ZM95.9472 213V230H93.0572V217.658L87.6512 226.362H87.2772L81.8712 217.658V230H78.9472V213H82.1092L87.4472 221.602L92.7852 213H95.9472ZM101.517 222.86C101.811 224.379 102.503 225.557 103.591 226.396C104.701 227.235 106.061 227.654 107.671 227.654C109.915 227.654 111.547 226.827 112.567 225.172L115.083 226.6C113.428 229.161 110.935 230.442 107.603 230.442C104.905 230.442 102.707 229.603 101.007 227.926C99.3295 226.226 98.4908 224.084 98.4908 221.5C98.4908 218.939 99.3182 216.808 100.973 215.108C102.627 213.408 104.769 212.558 107.399 212.558C109.892 212.558 111.921 213.442 113.485 215.21C115.071 216.955 115.865 219.063 115.865 221.534C115.865 221.965 115.831 222.407 115.763 222.86H101.517ZM107.399 215.346C105.812 215.346 104.497 215.799 103.455 216.706C102.412 217.59 101.766 218.78 101.517 220.276H112.873C112.623 218.667 111.989 217.443 110.969 216.604C109.949 215.765 108.759 215.346 107.399 215.346ZM130.009 213H132.967V230H130.009V222.894H121.203V230H118.245V213H121.203V220.072H130.009V213ZM138.524 222.86C138.818 224.379 139.51 225.557 140.598 226.396C141.708 227.235 143.068 227.654 144.678 227.654C146.922 227.654 148.554 226.827 149.574 225.172L152.09 226.6C150.435 229.161 147.942 230.442 144.61 230.442C141.912 230.442 139.714 229.603 138.014 227.926C136.336 226.226 135.498 224.084 135.498 221.5C135.498 218.939 136.325 216.808 137.98 215.108C139.634 213.408 141.776 212.558 144.406 212.558C146.899 212.558 148.928 213.442 150.492 215.21C152.078 216.955 152.872 219.063 152.872 221.534C152.872 221.965 152.838 222.407 152.77 222.86H138.524ZM144.406 215.346C142.819 215.346 141.504 215.799 140.462 216.706C139.419 217.59 138.773 218.78 138.524 220.276H149.88C149.63 218.667 148.996 217.443 147.976 216.604C146.956 215.765 145.766 215.346 144.406 215.346ZM169.208 227.178H171.554V234.556H168.63V230H155.88V234.556H152.956V227.178H155.03C156.118 225.682 156.662 223.585 156.662 220.888V213H169.208V227.178ZM158.396 227.178H166.284V215.754H159.586V220.888C159.586 223.427 159.189 225.523 158.396 227.178ZM194.632 230H191.164L184.806 221.942V230H181.882V221.942L175.524 230H172.09L179.196 221.228L172.43 213H175.864L181.882 220.514V213H184.806V220.514L190.824 213H194.292L187.492 221.228L194.632 230ZM197.155 222.86C197.45 224.379 198.141 225.557 199.229 226.396C200.34 227.235 201.7 227.654 203.309 227.654C205.553 227.654 207.185 226.827 208.205 225.172L210.721 226.6C209.066 229.161 206.573 230.442 203.241 230.442C200.544 230.442 198.345 229.603 196.645 227.926C194.968 226.226 194.129 224.084 194.129 221.5C194.129 218.939 194.956 216.808 196.611 215.108C198.266 213.408 200.408 212.558 203.037 212.558C205.53 212.558 207.559 213.442 209.123 215.21C210.71 216.955 211.503 219.063 211.503 221.534C211.503 221.965 211.469 222.407 211.401 222.86H197.155ZM203.037 215.346C201.45 215.346 200.136 215.799 199.093 216.706C198.05 217.59 197.404 218.78 197.155 220.276H208.511C208.262 218.667 207.627 217.443 206.607 216.604C205.587 215.765 204.397 215.346 203.037 215.346ZM223.267 212.558C225.647 212.558 227.676 213.431 229.353 215.176C231.031 216.899 231.869 219.007 231.869 221.5C231.869 223.993 231.031 226.113 229.353 227.858C227.676 229.581 225.647 230.442 223.267 230.442C220.457 230.442 218.315 229.32 216.841 227.076V236.8H213.883V213H216.841V215.924C218.315 213.68 220.457 212.558 223.267 212.558ZM222.893 227.586C224.593 227.586 226.021 227.008 227.177 225.852C228.333 224.673 228.911 223.223 228.911 221.5C228.911 219.777 228.333 218.338 227.177 217.182C226.021 216.003 224.593 215.414 222.893 215.414C221.171 215.414 219.731 216.003 218.575 217.182C217.419 218.338 216.841 219.777 216.841 221.5C216.841 223.223 217.419 224.673 218.575 225.852C219.731 227.008 221.171 227.586 222.893 227.586ZM249.849 230.442C247.288 230.442 245.157 229.592 243.457 227.892C241.757 226.169 240.907 224.039 240.907 221.5C240.907 218.961 241.757 216.842 243.457 215.142C245.157 213.419 247.288 212.558 249.849 212.558C251.526 212.558 253.034 212.966 254.371 213.782C255.708 214.575 256.706 215.652 257.363 217.012L254.881 218.44C254.45 217.533 253.782 216.808 252.875 216.264C251.991 215.72 250.982 215.448 249.849 215.448C248.149 215.448 246.721 216.026 245.565 217.182C244.432 218.338 243.865 219.777 243.865 221.5C243.865 223.2 244.432 224.628 245.565 225.784C246.721 226.94 248.149 227.518 249.849 227.518C250.982 227.518 252.002 227.257 252.909 226.736C253.816 226.192 254.507 225.467 254.983 224.56L257.499 226.022C256.774 227.359 255.731 228.436 254.371 229.252C253.011 230.045 251.504 230.442 249.849 230.442ZM270.755 221.262C272.5 221.987 273.373 223.302 273.373 225.206C273.373 226.611 272.897 227.767 271.945 228.674C271.015 229.558 269.678 230 267.933 230H259.433V213H267.253C268.953 213 270.267 213.431 271.197 214.292C272.126 215.131 272.591 216.241 272.591 217.624C272.591 219.256 271.979 220.469 270.755 221.262ZM267.117 215.652H262.323V220.106H267.117C268.839 220.106 269.701 219.347 269.701 217.828C269.701 216.377 268.839 215.652 267.117 215.652ZM267.763 227.314C268.624 227.314 269.281 227.11 269.735 226.702C270.211 226.294 270.449 225.716 270.449 224.968C270.449 224.265 270.211 223.721 269.735 223.336C269.281 222.928 268.624 222.724 267.763 222.724H262.323V227.314H267.763ZM287.598 213V230H284.674V223.88H282.192L277.432 230H273.828L278.792 223.71C277.522 223.393 276.491 222.758 275.698 221.806C274.904 220.854 274.508 219.743 274.508 218.474C274.508 216.91 275.063 215.607 276.174 214.564C277.284 213.521 278.678 213 280.356 213H287.598ZM280.458 221.228H284.674V215.754H280.458C279.619 215.754 278.905 216.003 278.316 216.502C277.726 217.001 277.432 217.669 277.432 218.508C277.432 219.324 277.726 219.981 278.316 220.48C278.905 220.979 279.619 221.228 280.458 221.228ZM311.971 230H308.503L302.145 221.942V230H299.221V221.942L292.863 230H289.429L296.535 221.228L289.769 213H293.203L299.221 220.514V213H302.145V220.514L308.163 213H311.631L304.831 221.228L311.971 230ZM314.494 222.86C314.788 224.379 315.48 225.557 316.568 226.396C317.678 227.235 319.038 227.654 320.648 227.654C322.892 227.654 324.524 226.827 325.544 225.172L328.06 226.6C326.405 229.161 323.912 230.442 320.58 230.442C317.882 230.442 315.684 229.603 313.984 227.926C312.306 226.226 311.468 224.084 311.468 221.5C311.468 218.939 312.295 216.808 313.95 215.108C315.604 213.408 317.746 212.558 320.376 212.558C322.869 212.558 324.898 213.442 326.462 215.21C328.048 216.955 328.842 219.063 328.842 221.534C328.842 221.965 328.808 222.407 328.74 222.86H314.494ZM320.376 215.346C318.789 215.346 317.474 215.799 316.432 216.706C315.389 217.59 314.743 218.78 314.494 220.276H325.85C325.6 218.667 324.966 217.443 323.946 216.604C322.926 215.765 321.736 215.346 320.376 215.346ZM343.206 213V215.856H337.426V230H334.468V215.856H328.654V213H343.206ZM352.104 230.442C349.543 230.442 347.412 229.592 345.712 227.892C344.012 226.169 343.162 224.039 343.162 221.5C343.162 218.961 344.012 216.842 345.712 215.142C347.412 213.419 349.543 212.558 352.104 212.558C353.781 212.558 355.289 212.966 356.626 213.782C357.963 214.575 358.961 215.652 359.618 217.012L357.136 218.44C356.705 217.533 356.037 216.808 355.13 216.264C354.246 215.72 353.237 215.448 352.104 215.448C350.404 215.448 348.976 216.026 347.82 217.182C346.687 218.338 346.12 219.777 346.12 221.5C346.12 223.2 346.687 224.628 347.82 225.784C348.976 226.94 350.404 227.518 352.104 227.518C353.237 227.518 354.257 227.257 355.164 226.736C356.071 226.192 356.762 225.467 357.238 224.56L359.754 226.022C359.029 227.359 357.986 228.436 356.626 229.252C355.266 230.045 353.759 230.442 352.104 230.442ZM374.039 213V230H371.115V223.88H368.633L363.873 230H360.269L365.233 223.71C363.963 223.393 362.932 222.758 362.139 221.806C361.345 220.854 360.949 219.743 360.949 218.474C360.949 216.91 361.504 215.607 362.615 214.564C363.725 213.521 365.119 213 366.797 213H374.039ZM366.899 221.228H371.115V215.754H366.899C366.06 215.754 365.346 216.003 364.757 216.502C364.167 217.001 363.873 217.669 363.873 218.508C363.873 219.324 364.167 219.981 364.757 220.48C365.346 220.979 366.06 221.228 366.899 221.228ZM392.972 230.442C390.41 230.442 388.28 229.592 386.58 227.892C384.88 226.169 384.03 224.039 384.03 221.5C384.03 218.961 384.88 216.842 386.58 215.142C388.28 213.419 390.41 212.558 392.972 212.558C394.649 212.558 396.156 212.966 397.494 213.782C398.831 214.575 399.828 215.652 400.486 217.012L398.004 218.44C397.573 217.533 396.904 216.808 395.998 216.264C395.114 215.72 394.105 215.448 392.972 215.448C391.272 215.448 389.844 216.026 388.688 217.182C387.554 218.338 386.988 219.777 386.988 221.5C386.988 223.2 387.554 224.628 388.688 225.784C389.844 226.94 391.272 227.518 392.972 227.518C394.105 227.518 395.125 227.257 396.032 226.736C396.938 226.192 397.63 225.467 398.106 224.56L400.622 226.022C399.896 227.359 398.854 228.436 397.494 229.252C396.134 230.045 394.626 230.442 392.972 230.442ZM421.357 221.262C423.103 221.987 423.975 223.302 423.975 225.206C423.975 226.611 423.499 227.767 422.547 228.674C421.618 229.558 420.281 230 418.535 230H410.035V213H417.855C419.555 213 420.87 213.431 421.799 214.292C422.729 215.131 423.193 216.241 423.193 217.624C423.193 219.256 422.581 220.469 421.357 221.262ZM417.719 215.652H412.925V220.106H417.719C419.442 220.106 420.303 219.347 420.303 217.828C420.303 216.377 419.442 215.652 417.719 215.652ZM418.365 227.314C419.227 227.314 419.884 227.11 420.337 226.702C420.813 226.294 421.051 225.716 421.051 224.968C421.051 224.265 420.813 223.721 420.337 223.336C419.884 222.928 419.227 222.724 418.365 222.724H412.925V227.314H418.365ZM440.224 213H443.182V230H440.224V227.076C438.751 229.32 436.609 230.442 433.798 230.442C431.418 230.442 429.39 229.581 427.712 227.858C426.035 226.113 425.196 223.993 425.196 221.5C425.196 219.007 426.035 216.899 427.712 215.176C429.39 213.431 431.418 212.558 433.798 212.558C436.609 212.558 438.751 213.68 440.224 215.924V213ZM434.172 227.586C435.895 227.586 437.334 227.008 438.49 225.852C439.646 224.673 440.224 223.223 440.224 221.5C440.224 219.777 439.646 218.338 438.49 217.182C437.334 216.003 435.895 215.414 434.172 215.414C432.472 215.414 431.044 216.003 429.888 217.182C428.732 218.338 428.154 219.777 428.154 221.5C428.154 223.223 428.732 224.673 429.888 225.852C431.044 227.008 432.472 227.586 434.172 227.586ZM463.644 213V230H460.754V217.658L455.348 226.362H454.974L449.568 217.658V230H446.644V213H449.806L455.144 221.602L460.482 213H463.644ZM479.482 213H481.862V230H478.938V218.066L469.52 230H467.14V213H470.064V224.934L479.482 213ZM504.146 221.262C505.892 221.987 506.764 223.302 506.764 225.206C506.764 226.611 506.288 227.767 505.336 228.674C504.407 229.558 503.07 230 501.324 230H492.824V213H500.644C502.344 213 503.659 213.431 504.588 214.292C505.518 215.131 505.982 216.241 505.982 217.624C505.982 219.256 505.37 220.469 504.146 221.262ZM500.508 215.652H495.714V220.106H500.508C502.231 220.106 503.092 219.347 503.092 217.828C503.092 216.377 502.231 215.652 500.508 215.652ZM501.154 227.314C502.016 227.314 502.673 227.11 503.126 226.702C503.602 226.294 503.84 225.716 503.84 224.968C503.84 224.265 503.602 223.721 503.126 223.336C502.673 222.928 502.016 222.724 501.154 222.724H495.714V227.314H501.154ZM524.135 230.442C521.619 230.442 519.545 229.615 517.913 227.96C516.281 226.305 515.465 224.175 515.465 221.568C515.465 218.667 515.884 216.434 516.723 214.87C517.584 213.306 519.33 211.889 521.959 210.62C522.435 210.393 523.081 210.099 523.897 209.736C524.736 209.373 525.348 209.101 525.733 208.92C526.118 208.716 526.549 208.455 527.025 208.138C527.501 207.798 527.852 207.435 528.079 207.05C528.328 206.642 528.51 206.177 528.623 205.656L531.003 207.016C530.935 207.379 530.844 207.719 530.731 208.036C530.618 208.331 530.448 208.625 530.221 208.92C530.017 209.192 529.836 209.43 529.677 209.634C529.518 209.838 529.246 210.065 528.861 210.314C528.498 210.541 528.226 210.711 528.045 210.824C527.886 210.937 527.558 211.107 527.059 211.334C526.583 211.561 526.254 211.719 526.073 211.81C525.914 211.878 525.54 212.037 524.951 212.286C524.362 212.513 523.999 212.66 523.863 212.728C522.322 213.385 521.188 214.054 520.463 214.734C519.76 215.414 519.25 216.275 518.933 217.318C519.658 216.411 520.565 215.743 521.653 215.312C522.741 214.881 523.829 214.666 524.917 214.666C527.048 214.666 528.85 215.391 530.323 216.842C531.819 218.293 532.567 220.163 532.567 222.452C532.567 224.764 531.774 226.679 530.187 228.198C528.6 229.694 526.583 230.442 524.135 230.442ZM520.157 226.09C521.222 227.087 522.548 227.586 524.135 227.586C525.722 227.586 527.025 227.099 528.045 226.124C529.088 225.149 529.609 223.925 529.609 222.452C529.609 220.933 529.11 219.698 528.113 218.746C527.138 217.771 525.846 217.284 524.237 217.284C522.786 217.284 521.472 217.749 520.293 218.678C519.137 219.585 518.559 220.786 518.559 222.282C518.559 223.823 519.092 225.093 520.157 226.09ZM548.268 213V230H545.31V215.856H538.612V222.792C538.612 225.58 538.046 227.529 536.912 228.64C535.802 229.728 534.226 230.181 532.186 230V227.212C533.342 227.371 534.204 227.121 534.77 226.464C535.36 225.784 535.654 224.537 535.654 222.724V213H548.268ZM564.073 213H566.453V230H563.529V218.066L554.111 230H551.731V213H554.655V224.934L564.073 213ZM590.845 230H587.377L581.019 221.942V230H578.095V221.942L571.737 230H568.303L575.409 221.228L568.643 213H572.077L578.095 220.514V213H581.019V220.514L587.037 213H590.505L583.705 221.228L590.845 230ZM605.37 213H608.328V230H605.37V227.076C603.897 229.32 601.755 230.442 598.944 230.442C596.564 230.442 594.535 229.581 592.858 227.858C591.181 226.113 590.342 223.993 590.342 221.5C590.342 219.007 591.181 216.899 592.858 215.176C594.535 213.431 596.564 212.558 598.944 212.558C601.755 212.558 603.897 213.68 605.37 215.924V213ZM599.318 227.586C601.041 227.586 602.48 227.008 603.636 225.852C604.792 224.673 605.37 223.223 605.37 221.5C605.37 219.777 604.792 218.338 603.636 217.182C602.48 216.003 601.041 215.414 599.318 215.414C597.618 215.414 596.19 216.003 595.034 217.182C593.878 218.338 593.3 219.777 593.3 221.5C593.3 223.223 593.878 224.673 595.034 225.852C596.19 227.008 597.618 227.586 599.318 227.586ZM614.578 210.45V207.866H623.758V210.45H614.578ZM624.132 213H626.512V230H623.588V218.066L614.17 230H611.79V213H614.714V224.934L624.132 213ZM650.326 213H653.284V230H629.994V213H632.952V227.178H640.16V213H643.118V227.178H650.326V213ZM658.872 222.86C659.167 224.379 659.858 225.557 660.946 226.396C662.057 227.235 663.417 227.654 665.026 227.654C667.27 227.654 668.902 226.827 669.922 225.172L672.438 226.6C670.784 229.161 668.29 230.442 664.958 230.442C662.261 230.442 660.062 229.603 658.362 227.926C656.685 226.226 655.846 224.084 655.846 221.5C655.846 218.939 656.674 216.808 658.328 215.108C659.983 213.408 662.125 212.558 664.754 212.558C667.248 212.558 669.276 213.442 670.84 215.21C672.427 216.955 673.22 219.063 673.22 221.534C673.22 221.965 673.186 222.407 673.118 222.86H658.872ZM664.754 215.346C663.168 215.346 661.853 215.799 660.81 216.706C659.768 217.59 659.122 218.78 658.872 220.276H670.228C669.979 218.667 669.344 217.443 668.324 216.604C667.304 215.765 666.114 215.346 664.754 215.346ZM677.641 222.86C677.936 224.379 678.627 225.557 679.715 226.396C680.826 227.235 682.186 227.654 683.795 227.654C686.039 227.654 687.671 226.827 688.691 225.172L691.207 226.6C689.553 229.161 687.059 230.442 683.727 230.442C681.03 230.442 678.831 229.603 677.131 227.926C675.454 226.226 674.615 224.084 674.615 221.5C674.615 218.939 675.443 216.808 677.097 215.108C678.752 213.408 680.894 212.558 683.523 212.558C686.017 212.558 688.045 213.442 689.609 215.21C691.196 216.955 691.989 219.063 691.989 221.534C691.989 221.965 691.955 222.407 691.887 222.86H677.641ZM683.523 215.346C681.937 215.346 680.622 215.799 679.579 216.706C678.537 217.59 677.891 218.78 677.641 220.276H688.997C688.748 218.667 688.113 217.443 687.093 216.604C686.073 215.765 684.883 215.346 683.523 215.346ZM713.172 221.262C714.917 221.987 715.79 223.302 715.79 225.206C715.79 226.611 715.314 227.767 714.362 228.674C713.432 229.558 712.095 230 710.35 230H701.85V213H709.67C711.37 213 712.684 213.431 713.614 214.292C714.543 215.131 715.008 216.241 715.008 217.624C715.008 219.256 714.396 220.469 713.172 221.262ZM709.534 215.652H704.74V220.106H709.534C711.256 220.106 712.118 219.347 712.118 217.828C712.118 216.377 711.256 215.652 709.534 215.652ZM710.18 227.314C711.041 227.314 711.698 227.11 712.152 226.702C712.628 226.294 712.866 225.716 712.866 224.968C712.866 224.265 712.628 223.721 712.152 223.336C711.698 222.928 711.041 222.724 710.18 222.724H704.74V227.314H710.18ZM727.347 212.558C729.727 212.558 731.755 213.431 733.433 215.176C735.11 216.899 735.949 219.007 735.949 221.5C735.949 223.993 735.11 226.113 733.433 227.858C731.755 229.581 729.727 230.442 727.347 230.442C724.536 230.442 722.394 229.32 720.921 227.076V236.8H717.963V213H720.921V215.924C722.394 213.68 724.536 212.558 727.347 212.558ZM726.973 227.586C728.673 227.586 730.101 227.008 731.257 225.852C732.413 224.673 732.991 223.223 732.991 221.5C732.991 219.777 732.413 218.338 731.257 217.182C730.101 216.003 728.673 215.414 726.973 215.414C725.25 215.414 723.811 216.003 722.655 217.182C721.499 218.338 720.921 219.777 720.921 221.5C720.921 223.223 721.499 224.673 722.655 225.852C723.811 227.008 725.25 227.586 726.973 227.586ZM740.532 222.86C740.827 224.379 741.518 225.557 742.606 226.396C743.717 227.235 745.077 227.654 746.686 227.654C748.93 227.654 750.562 226.827 751.582 225.172L754.098 226.6C752.444 229.161 749.95 230.442 746.618 230.442C743.921 230.442 741.722 229.603 740.022 227.926C738.345 226.226 737.506 224.084 737.506 221.5C737.506 218.939 738.334 216.808 739.988 215.108C741.643 213.408 743.785 212.558 746.414 212.558C748.908 212.558 750.936 213.442 752.5 215.21C754.087 216.955 754.88 219.063 754.88 221.534C754.88 221.965 754.846 222.407 754.778 222.86H740.532ZM746.414 215.346C744.828 215.346 743.513 215.799 742.47 216.706C741.428 217.59 740.782 218.78 740.532 220.276H751.888C751.639 218.667 751.004 217.443 749.984 216.604C748.964 215.765 747.774 215.346 746.414 215.346ZM774.26 213V230H771.37V217.658L765.964 226.362H765.59L760.184 217.658V230H757.26V213H760.422L765.76 221.602L771.098 213H774.26ZM790.472 213V230H787.548V223.88H785.066L780.306 230H776.702L781.666 223.71C780.397 223.393 779.365 222.758 778.572 221.806C777.779 220.854 777.382 219.743 777.382 218.474C777.382 216.91 777.937 215.607 779.048 214.564C780.159 213.521 781.553 213 783.23 213H790.472ZM783.332 221.228H787.548V215.754H783.332C782.493 215.754 781.779 216.003 781.19 216.502C780.601 217.001 780.306 217.669 780.306 218.508C780.306 219.324 780.601 219.981 781.19 220.48C781.779 220.979 782.493 221.228 783.332 221.228ZM794.683 223.03L794.037 213V206.2H797.607V213L796.961 223.03H794.683ZM795.805 230.374C795.193 230.374 794.672 230.159 794.241 229.728C793.811 229.297 793.595 228.776 793.595 228.164C793.595 227.552 793.811 227.031 794.241 226.6C794.672 226.169 795.193 225.954 795.805 225.954C796.44 225.954 796.961 226.169 797.369 226.6C797.8 227.031 798.015 227.552 798.015 228.164C798.015 228.776 797.8 229.297 797.369 229.728C796.961 230.159 796.44 230.374 795.805 230.374Z" fill="#989EB1"/>
<path d="M400 10.6668C388.218 10.6668 378.667 20.2181 378.667 32.0002C378.667 43.7822 388.218 53.3335 400 53.3335C411.782 53.3335 421.333 43.7822 421.333 32.0002C421.333 20.2181 411.782 10.6668 400 10.6668ZM373.333 32.0002C373.333 17.2726 385.272 5.3335 400 5.3335C414.728 5.3335 426.667 17.2726 426.667 32.0002C426.667 46.7278 414.728 58.6668 400 58.6668C385.272 58.6668 373.333 46.7278 373.333 32.0002ZM412.438 23.3404C413.539 24.3189 413.638 26.0044 412.66 27.1051L398.438 43.1051C397.931 43.6744 397.206 44.0002 396.444 44.0002C395.683 44.0002 394.957 43.6744 394.451 43.1051L387.34 35.1051C386.362 34.0044 386.461 32.3189 387.562 31.3404C388.662 30.362 390.348 30.4611 391.326 31.5619L396.444 37.3196L408.674 23.5619C409.652 22.4611 411.338 22.362 412.438 23.3404Z" fill="#213887"/>
</svg>
